<?xml version="1.0" encoding="utf-8"?>
<!-- Generator: Adobe Illustrator 22.1.0, SVG Export Plug-In . SVG Version: 6.00 Build 0)  -->
<svg version="1.1" id="Layer_1" xmlns="http://www.w3.org/2000/svg" xmlns:xlink="http://www.w3.org/1999/xlink" x="0px" y="0px"
	 viewBox="0 0 500 500" style="enable-background:new 0 0 500 500;" xml:space="preserve">
<style type="text/css">
	.st0{fill:#E7E7E7;}
</style>
<g>
	<g>
		<g>
			<g>
				<g>
					<g>
						<g>
							<path class="st0" d="M158.9,182.1c0,0-0.1,0.1-0.1,0.1c-0.4-0.5-0.8-0.9-1.3-1.4c-1.1-1.1-2.3-2.1-2.7-3.7
								c-0.1-0.5-0.5-0.9-0.9-1.2c-1-0.9-2.1-1.7-3.2-2.6c-0.5-0.4-1-0.7-1.6-1c-2.2-1.2-4.8,0.4-4.8,2.9c0,1.4,1,2.4,1.7,3.6
								c0.3,0.4,0.6,0.8,0.9,1.2c0.3,0.4,0.6,0.8,0.9,1.2c0.2,0.2,0.4,0.4,0.7,0.6c-3.3-0.2-5.7,1.1-6.8,3.9c-1,2.6-1.1,5.3,1.2,7.4
								c-0.3-0.1-0.5-0.3-0.8-0.3c-0.3-0.1-0.6,0-0.9,0c-0.1,0-0.1-0.1-0.2-0.1c-0.4-0.4-0.8-0.3-1.2-0.1c-0.2,0.1-0.4,0.1-0.6,0.1
								c-0.3,0-0.5,0-0.8,0c-0.5,0.1-0.9,0.2-1.4,0.3c-0.2,0-0.4,0.1-0.5,0.2c-0.1,0.2-0.2,0.4-0.2,0.6c0,0.1,0.3,0.2,0.5,0.2
								c0.2,0,0.4-0.1,0.6-0.1c0.8-0.1,1.5-0.5,2.3-0.3c0.4,0.1,0.9-0.2,1.3-0.3c0.4,0,0.8,0,1.1,0.1c0.2,0.1,0.3,0.5,0.5,0.8
								c0,0-0.1,0.1-0.1,0.1c-0.1,0-0.2,0-0.3-0.1c-1.8-0.5-3.4-0.2-4.9,0.8c-0.1,0.1-0.4,0.1-0.5,0.1c-0.7-0.2-1.5-0.2-2,0.3
								c-0.6,0.6-1.1,1.4-1.1,2.4c0,0.9,0.2,1.8,0.2,2.6c0,0.4,0,0.7,0,1.1c0,0.6,0,1.2-0.1,1.8c0,0.4-0.2,0.7-0.2,1.1
								c-0.1,0.5-0.1,1.1-0.2,1.6c0,0.1-0.2,0.2-0.3,0.2c-0.9,0.4-1.8,0.8-2.7,1.1c-0.6,0.2-1.3,0.5-1.9,0.3
								c-0.1-1.6-0.2-3.1-0.3-4.6c0-0.8-0.4-1.4-1.1-1.7c-0.1-0.1-0.2-0.2-0.3-0.4c-0.2-0.2-0.3-0.4-0.4-0.6
								c-0.1,0.2-0.3,0.4-0.4,0.6c0,0.1,0,0.2,0,0.2c-0.6,0.2-1.1,0.6-1.3,1.2c-0.2,0.6-0.3,1.3-0.3,1.9c0,0.9,0,1.8,0,2.8
								c-0.8-0.2-1-0.5-0.8-1.2c0.1-0.2,0.2-0.5,0.2-0.7c0.1-1.5,0.5-2.9,0-4.4c-0.1-0.2-0.1-0.5-0.1-0.7c0.5-0.3,1-0.4,1.4-0.7
								c0.7-0.5,1.3-1,2-1.5c0.1,0,0.1-0.1,0.2-0.1c0.4-0.2,0.7-0.5,1.1-0.7c0.1-0.1,0.3-0.2,0.4-0.2c0.4,0,0.9,0,1.3-0.1
								c2-0.1,3.2-2,2.5-3.9c-0.1-0.2,0-0.4,0-0.6c0.3-0.6,0.3-1.1,0-1.7c-0.4-1-0.7-1.9-1.1-2.9c-0.1-0.3,0-0.5,0.3-0.7
								c0.1-0.1,0.3-0.2,0.3-0.4c0.2-0.6,0.4-1.2,0.6-1.8c0.1-0.5,0.3-0.9,0.6-1.2c0.1-0.1,0-0.2,0.1-0.4c-0.1,0-0.3,0-0.4,0
								c-0.3,0.3-0.8,0.6-0.7,1.2c0,0.2-0.1,0.4-0.2,0.6c-0.4,0.5-0.9,1-0.9,1.8c-0.1-0.1-0.2-0.2-0.2-0.3c-0.3-0.7-0.5-1.4-0.8-2.1
								c-0.6-1.3-1.2-2.7-1.8-4c-0.4-0.9-1.3-1.4-2.2-1.1c-0.9,0.2-1.5,1.1-1.3,2.1c0.1,0.3,0.2,0.7,0.2,1c0.1,0.9,0.5,1.8,0.9,2.6
								c0.5,1,1.1,2,1.7,3c0.3,0.5,0.5,1.1,0.7,1.7c-0.2,0-0.3,0-0.3,0c-1.4-0.2-2.7-0.3-4,0.1c-0.1,0-0.4-0.1-0.4-0.2
								c-0.7-1.2-0.8-2.5-0.6-3.9c0-0.2-0.1-0.3-0.1-0.5c-0.1,0.1-0.3,0.2-0.3,0.4c0,0.8-0.1,1.6,0,2.3c0.1,0.7,0.4,1.3,0.6,2
								c-0.1,0-0.3,0-0.5,0c-1.2,0-2.3,0-3.5,0c-0.6,0-1.2-0.1-1.7-0.4c-1.2-0.7-2.5-0.7-3.8-0.5c-0.8,0.1-1.6,0.2-2.4,0.4
								c-0.5,0.1-0.9,0.3-1.4,0.4c-1.5,0.2-2.7,1.3-2.9,2.9c-0.2,1.4,0.7,2.9,2,3.3c0.9,0.3,1.8,0.5,2.6,0.6
								c0.4,0.1,0.8,0.1,1.3,0.2c0.8,0.1,1.5,0.2,2.3,0.3c0.1,0,0.2,0,0.4,0c-0.1,0.1-0.1,0.1-0.1,0.1c-2.2,1.7-2.7,4.1-2.2,6.6
								c0.4,1.9,1.8,3.1,3.2,4.2c0.7,0.5,1.5,0.7,2.3,0.8c1,0.1,1.9-0.2,2.8-0.7c0.2,0.5,0.3,1,0.5,1.4c0,0-0.1,0.1-0.1,0.1
								c-0.2-0.1-0.3-0.3-0.5-0.4c-0.2-0.1-0.4-0.3-0.6-0.3c-1-0.1-1.9-0.1-2.6,0.8c-0.1,0.1-0.2,0.1-0.3,0.1
								c-0.5,0-0.8,0.3-0.9,0.8c0,0.2-0.2,0.3-0.3,0.4c-0.2,0.3-0.5,0.5-0.7,0.8c-0.3,0.3-0.5,0.7-0.7,1.1c-0.1,0.2-0.2,0.4-0.2,0.6
								c0,0.2,0.2,0.4,0.3,0.5c0.1,0,0.3,0,0.4-0.1c0.3-0.4,0.6-0.7,0.8-1.1c0.2-0.4,0.3-0.8,0.8-1c0.1-0.1,0.2-0.2,0.3-0.4
								c0.2-0.7,0.7-1.1,1.2-1.6c0.1-0.1,0.3-0.2,0.4-0.2c0.3,0.1,0.6,0.2,0.9,0.3c-0.1,0.1-0.2,0.2-0.3,0.3
								c-1.7,0.9-2.6,2.2-2.9,4.1c0,0.2-0.2,0.3-0.3,0.4c-0.6,0.4-1.2,0.9-1.2,1.6c0,0.9,0.2,1.8,0.9,2.5c0.9,0.9,1.9,1.6,2.8,2.4
								c0.6,0.5,1.1,0.9,1.4,1.6c0.1,0.2,0.2,0.5,0.4,0.7c0.3,0.4,0.7,0.7,1,1.1c0.1,0.1,0.1,0.4,0.1,0.6c-0.3,0.9-0.7,1.8-1.1,2.6
								c-0.3,0.6-0.6,1.3-1.3,1.7c-0.5-0.6-1.1-1.1-1.6-1.7c-0.6-0.5-1.2-1-1.8-1.5c-0.4-0.3-0.9-0.5-1.4-0.4
								c-0.5,0.1-1,0.2-1.4-0.1c-0.2-0.1-0.5,0.1-0.3,0.3c0.3,0.5,0.1,1,0.1,1.5c0,0.3,0,0.6,0.2,0.9c0.3,0.6,0.7,1.1,1.2,1.6
								c0.6,0.7,1.3,1.3,2,2c-0.6,0.3-1.2,0.4-1.3,0.1c-0.3-1-1.1-1.7-1.7-2.4c-0.4-0.6-1-1-1.6-1.5c-0.3-0.2-0.6-0.4-0.8-0.6
								c0.2-1.2,0.5-2.2,0.7-3.3c0.1-0.5,0.3-1.1,0.4-1.6c0-0.2,0-0.4,0-0.6c0-0.2,0.1-0.4,0.2-0.5c0.3-0.3,0.6-0.6,0.9-1
								c1.3-1.6,0.8-3.7-1-4.5c-0.2-0.1-0.3-0.3-0.4-0.5c-0.2-0.6-0.6-1-1.2-1.2c-0.9-0.4-1.9-0.9-2.8-1.3c-0.3-0.1-0.4-0.4-0.3-0.7
								c0-0.2,0-0.5-0.1-0.6c-0.2-0.3-0.5-0.6-0.5-0.9c-0.1-0.7-0.9-1.2-0.6-2c0-0.1-0.1-0.2-0.2-0.3c-0.1,0-0.2,0.1-0.2,0.1
								c0,0.4-0.1,0.9,0.1,1.2c0.4,0.5,0.5,1.1,0.6,1.7c0,0.3,0.2,0.5,0.3,0.8c0.1,0.1,0.2,0.2,0.3,0.4c-0.2-0.1-0.3-0.1-0.4-0.1
								c-0.7-0.3-1.4-0.7-2.1-1c-1.4-0.5-2.7-1-4.1-1.5c-0.9-0.3-1.9,0-2.3,0.8c-0.5,0.8-0.3,1.9,0.5,2.4c0.7,0.5,1.5,1,2.2,1.4
								c1,0.4,2.1,0.8,3.1,1c1.1,0.2,2,0.7,3,1.1c0,0.1,0,0.1,0,0.1c-1.1,0.9-2.3,1.9-3,3.2c0,0.1-0.2,0.1-0.3,0.1
								c-1.3-0.3-2.3-1.2-3.2-2.2c-0.1-0.2-0.2-0.6-0.5-0.4c-0.3,0.2,0,0.4,0.1,0.7c0,0.1,0.1,0.1,0.1,0.2c0.7,0.6,1.3,1.2,2,1.7
								c0.4,0.3,0.8,0.4,1.4,0.6c-0.5,0.5-0.9,0.8-1.4,1.3c-1.1,1.1-2.2,2.3-3.8,2.8c-0.5,0.1-0.9,0.5-1.3,0.9c-0.9,1-1.7,2-2.5,3.1
								c-0.4,0.5-0.7,1.1-1,1.7c-1.1,2.2,0.4,4.7,2.9,4.8c1.5,0,2.5-1,3.6-1.7c0.4-0.3,0.8-0.6,1.3-0.9c0.4-0.3,0.8-0.6,1.1-0.9
								c0.2-0.2,0.4-0.4,0.7-0.7c-0.2,3.2,1.1,5.7,3.9,6.8c2.5,1,5.2,1.1,7.3-1.1c-0.1,0.5-0.2,1-0.2,1.6c0,0.1,0,0.1-0.1,0.2
								c-0.4,0.4-0.3,0.8-0.1,1.2c0.1,0.2,0.1,0.4,0.1,0.5c0,0.3,0,0.6,0.1,0.9c0.1,0.4,0.1,0.9,0.2,1.3c0,0.2,0.1,0.4,0.2,0.6
								c0.1,0.1,0.4,0.2,0.6,0.1c0.1,0,0.2-0.3,0.2-0.4c-0.1-0.6-0.2-1.1-0.3-1.7c-0.1-0.4,0-0.7,0-1.1c-0.1-0.5-0.3-0.9-0.3-1.4
								c0-0.4-0.1-0.8,0.1-1.2c0.1-0.2,0.5-0.3,0.9-0.5c0,0.2-0.1,0.3-0.1,0.5c-0.5,1.8-0.2,3.4,0.8,4.9c0.1,0.1,0.1,0.4,0.1,0.5
								c-0.2,0.7-0.2,1.5,0.3,2c0.6,0.6,1.4,1.1,2.4,1.1c1.2,0,2.4-0.1,3.7-0.3c0.8-0.1,1.5-0.1,2.2,0.2c0.2,0.1,0.5,0.1,0.8,0.1
								c0.5,0.1,1.1,0.1,1.6,0.2c0.1,0,0.2,0.2,0.2,0.3c0.4,0.9,0.8,1.8,1.1,2.7c0.2,0.6,0.4,1.3,0.3,1.9c-1.5,0.1-3.1,0.2-4.6,0.3
								c-0.8,0-1.4,0.4-1.7,1.1c-0.1,0.1-0.2,0.2-0.3,0.3c-0.2,0.2-0.4,0.3-0.6,0.5c0.2,0.1,0.4,0.3,0.6,0.4c0.1,0,0.1,0,0.2,0
								c0.2,0.6,0.6,1.1,1.2,1.3c0.6,0.2,1.2,0.3,1.9,0.3c0.9,0,1.9,0,3,0c-0.3,0.4-0.5,0.6-0.7,0.9c0,0.1-0.2,0.1-0.3,0.1
								c-0.9-0.5-2-0.4-3-0.5c-0.7-0.1-1.4,0-2,0.1c-0.4,0-0.8,0.1-1,0.2c-0.4-0.7-0.8-1.3-1.2-2c-0.4-0.5-0.8-1-1.1-1.5
								c-0.1-0.1-0.1-0.2-0.1-0.3c-0.2-0.3-0.4-0.6-0.7-1c-0.1-0.1-0.2-0.3-0.2-0.4c0-0.4,0-0.9,0-1.3c-0.1-2-2-3.2-3.9-2.5
								c-0.3,0.1-0.5,0.1-0.7-0.1c-0.5-0.3-1.1-0.2-1.6,0c-1,0.4-1.9,0.7-2.9,1.1c-0.3,0.1-0.5,0-0.7-0.3c-0.1-0.1-0.2-0.3-0.4-0.3
								c-0.6-0.2-1.2-0.4-1.9-0.6c-0.5-0.1-0.8-0.3-1.1-0.6c-0.1-0.1-0.2-0.1-0.4-0.1c0,0.1,0,0.3,0,0.4c0.3,0.3,0.6,0.8,1.2,0.7
								c0.2,0,0.4,0.1,0.6,0.2c0.5,0.4,1,0.9,1.8,0.9c-0.1,0.1-0.2,0.2-0.3,0.2c-1,0.4-2,0.8-2.9,1.2c-1.1,0.5-2.2,1-3.3,1.4
								c-0.8,0.4-1.3,1.3-1.1,2.2c0.2,0.9,1.1,1.5,2.1,1.3c0.3-0.1,0.7-0.2,1-0.2c0.9-0.1,1.8-0.5,2.6-0.9c1-0.5,2-1.1,3-1.7
								c0.5-0.3,1.1-0.5,1.7-0.7c0,0.2,0,0.3,0,0.3c-0.2,1.4-0.3,2.7,0.1,4c0,0.1-0.1,0.4-0.2,0.4c-1.2,0.7-2.5,0.8-3.9,0.6
								c-0.2,0-0.3,0.1-0.5,0.1c0.1,0.1,0.2,0.3,0.4,0.3c0.8,0,1.6,0.1,2.3,0c0.7-0.1,1.3-0.4,2-0.6c0,0.1,0,0.3,0,0.4
								c0,1.2,0,2.3,0,3.5c0,0.5-0.1,1.2-0.4,1.6c-0.7,1.3-0.7,2.6-0.5,4c0.1,0.7,0.2,1.4,0.3,2c0.1,0.6,0.3,1.2,0.4,1.9
								c0.2,1.5,1.7,2.7,3.3,2.7c1.6,0,3-1.3,3.2-2.8c0.1-0.9,0.3-1.8,0.5-2.7c0.1-0.8,0.2-1.7,0.4-2.5c0-0.2,0-0.4,0-0.6
								c0.3,0.3,0.6,0.6,0.9,0.9c0.9,0.9,2.1,1.2,3.3,1.4c1.8,0.4,3.4,0,4.8-1.2c0.5-0.4,1-0.9,1.5-1.4c1-1,1.5-2.2,1.4-3.6
								c-0.1-0.8-0.3-1.5-0.5-2.3c0.4-0.1,0.8-0.3,1.3-0.4c0,0,0.1,0.1,0.1,0.1c-0.1,0.2-0.3,0.3-0.4,0.5c-0.1,0.1-0.3,0.2-0.3,0.4
								c-0.1,0.9-0.1,1.9,0.6,2.6c0.2,0.1,0.2,0.4,0.3,0.6c0.2,0.3,0.3,0.6,0.6,0.7c0.4,0.2,0.6,0.4,0.9,0.7c0.6,0.5,1.3,0.9,2,1.3
								c0.3,0.2,0.6,0,0.6-0.3c0-0.1-0.2-0.4-0.3-0.5c-0.6-0.6-1.6-0.7-2-1.5c-0.1-0.1-0.2-0.2-0.3-0.2c-0.7-0.2-1.1-0.7-1.6-1.2
								c-0.1-0.1-0.2-0.2-0.2-0.3c0.1-0.3,0.2-0.6,0.3-1c0.1,0.1,0.2,0.2,0.3,0.4c0.9,1.6,2.2,2.6,4,2.9c0.2,0,0.4,0.1,0.5,0.4
								c0.3,0.7,0.8,1.2,1.6,1.2c0.9,0,1.8-0.2,2.5-0.9c0.9-0.9,1.6-1.9,2.4-2.8c0.5-0.5,0.9-1.1,1.6-1.4c0.2-0.1,0.5-0.2,0.7-0.4
								c0.4-0.3,0.7-0.7,1.1-1c0.1-0.1,0.4-0.1,0.6-0.1c0.9,0.3,1.8,0.7,2.6,1.1c0.6,0.3,1.3,0.6,1.7,1.3c-0.5,0.5-1,1-1.5,1.5
								c-0.6,0.7-1.2,1.4-1.8,2.1c-0.4,0.5-0.4,1.1-0.3,1.6c0.1,0.2,0.2,0.4,0,0.7c-0.1,0.1-0.1,0.4-0.1,0.6c0.2,0,0.5,0.1,0.7-0.1
								c0.2-0.2,0.4-0.1,0.6,0c0.5,0.2,1.1,0.1,1.6-0.2c0.6-0.5,1.3-1,1.9-1.5c0.5-0.5,1-1,1.5-1.6c0.4,0.7,0.4,1.2,0,1.4
								c-1.3,0.6-2.3,1.6-3.3,2.5c-0.2,0.2-0.3,0.5-0.5,0.7c-0.2,0.3-0.4,0.6-0.7,0.9c-0.8-0.5-1.7-0.7-2.6-0.7
								c-0.1,0-0.2,0-0.2-0.1c-0.7-0.2-1.4-0.4-2.2-0.5c-0.2,0-0.3,0-0.5,0c-0.2,0-0.4-0.1-0.5-0.2c-0.3-0.3-0.6-0.6-1-0.9
								c-1.6-1.3-3.7-0.8-4.5,1c-0.1,0.2-0.3,0.3-0.5,0.4c-0.6,0.2-1,0.6-1.2,1.2c-0.4,0.9-0.9,1.9-1.3,2.8
								c-0.1,0.3-0.4,0.4-0.7,0.3c-0.2,0-0.5,0-0.6,0.1c-0.3,0.2-0.6,0.5-0.9,0.5c-0.7,0.1-1.2,0.9-2,0.6c-0.1,0-0.2,0.1-0.3,0.2
								c0,0.1,0.1,0.2,0.1,0.2c0.4,0,0.9,0.1,1.2-0.1c0.5-0.4,1.1-0.5,1.7-0.6c0.3,0,0.5-0.2,0.8-0.3c0.1-0.1,0.2-0.2,0.4-0.3
								c-0.1,0.2-0.1,0.3-0.1,0.4c-0.3,0.7-0.7,1.4-1,2.1c-0.5,1.4-1,2.7-1.5,4.1c-0.4,0.9-0.1,1.9,0.8,2.4c0.8,0.5,1.9,0.3,2.4-0.5
								c0.5-0.7,1-1.5,1.4-2.2c0.4-1,0.8-2.1,1-3.1c0.2-1.1,0.7-2,1.1-3c1,1.2,1.9,2.4,3.3,3.1c0.1,0,0.1,0.2,0.1,0.3
								c-0.3,1.3-1.2,2.3-2.2,3.1c-0.2,0.1-0.6,0.2-0.4,0.5c0.2,0.3,0.4,0,0.7-0.1c0.1,0,0.1-0.1,0.2-0.1c0.6-0.7,1.2-1.3,1.7-2
								c0.3-0.4,0.4-0.8,0.7-1.4c0.5,0.5,0.9,1,1.3,1.4c1.1,1.1,2.3,2.1,2.7,3.7c0.1,0.5,0.5,0.9,0.9,1.3c1,0.9,2.1,1.7,3.2,2.5
								c0.5,0.4,1.1,0.7,1.6,1c2.2,1.2,4.8-0.4,4.8-2.9c0-1.5-1-2.5-1.7-3.6c-0.3-0.4-0.6-0.8-0.9-1.2c-0.3-0.4-0.6-0.8-0.9-1.2
								c-0.2-0.2-0.4-0.4-0.7-0.6c3.3,0.2,5.7-1.1,6.8-3.9c1-2.5,1.1-5.2-1.1-7.3c0.5,0.1,1,0.2,1.6,0.2c0.1,0,0.1,0,0.2,0.1
								c0.4,0.4,0.8,0.3,1.2,0.1c0.1-0.1,0.3-0.1,0.5-0.1c0.4,0,0.7,0,1.1-0.1c0.4,0,0.8-0.1,1.1-0.2c0.2,0,0.5-0.1,0.6-0.2
								c0.1-0.1,0.2-0.4,0.2-0.6c0-0.1-0.2-0.2-0.4-0.2c-0.4,0-0.9,0.1-1.3,0.2c-0.5,0.1-0.9,0.4-1.4,0.2c-0.1,0-0.3,0-0.4,0.1
								c-0.6,0.3-1.3,0.3-2,0.3c-0.1,0-0.3-0.1-0.4-0.2c-0.2-0.2-0.3-0.5-0.4-0.8c0,0,0.1-0.1,0.1-0.1c0.1,0,0.2,0,0.3,0.1
								c1.8,0.6,3.5,0.3,5-0.8c0.1-0.1,0.4-0.1,0.5-0.1c0.7,0.2,1.5,0.2,2-0.3c0.6-0.6,1.1-1.4,1.1-2.4c0-0.9-0.2-1.8-0.2-2.6
								c0-0.4,0-0.7,0-1.1c0-0.6-0.1-1.2,0.1-1.9c0.1-0.3,0.2-0.7,0.2-1.1c0.1-0.5,0.1-1.1,0.2-1.6c0-0.1,0.2-0.2,0.3-0.2
								c0.8-0.4,1.7-0.7,2.6-1.1c0.7-0.3,1.4-0.5,2.1-0.3c0,0.4,0,0.8,0,1.3c0.1,1.2,0.1,2.4,0.2,3.5c0.1,0.4,0.3,0.9,0.6,1.2
								c0.4,0.3,0.8,0.5,1,1.1c0.1,0.3,0.4,0.3,0.5,0c0.2-0.5,0.6-0.8,1-1c0.3-0.2,0.5-0.5,0.5-0.8c0.2-0.6,0.3-1.3,0.3-1.9
								c0-0.9,0-1.8,0-2.9c0.3,0.2,0.6,0.4,0.8,0.6c0.1,0.1,0.2,0.3,0.1,0.3c-0.5,0.9-0.4,2-0.5,3c-0.1,0.7,0,1.4,0.1,2
								c0,0.4,0.1,0.8,0.2,1c-0.8,0.6-1.5,1.1-2.3,1.6c-0.1,0-0.1,0.1-0.2,0.1c-0.6,0.4-1.2,0.7-1.9,1.1c-0.2,0.1-0.3,0.3-0.4,0.4
								c-0.1,0.1-0.3,0.2-0.4,0.2c-0.4,0-0.9,0-1.3,0c-2.1,0.2-3.3,2-2.5,3.9c0.1,0.2,0,0.4,0,0.6c-0.3,0.6-0.3,1.1-0.1,1.7
								c0.4,1,0.7,1.9,1.1,2.9c0.1,0.3,0,0.5-0.3,0.7c-0.1,0.1-0.3,0.2-0.3,0.4c-0.2,0.6-0.4,1.2-0.6,1.9c-0.1,0.5-0.3,0.8-0.6,1.1
								c-0.1,0.1-0.1,0.2-0.1,0.4c0.1,0,0.3,0,0.4,0c0.3-0.3,0.8-0.6,0.7-1.2c0-0.2,0.1-0.4,0.2-0.6c0.4-0.5,0.9-1,0.8-1.8
								c0.1,0.1,0.2,0.2,0.2,0.3c0.4,1,0.8,2,1.2,2.9c0.5,1.1,1,2.2,1.4,3.3c0.4,0.9,1.4,1.3,2.3,1c0.9-0.3,1.4-1.3,1.2-2.2
								c-0.1-0.3-0.2-0.6-0.2-0.8c-0.1-0.9-0.5-1.8-0.9-2.6c-0.5-1-1.1-2-1.7-3c-0.3-0.5-0.5-1.1-0.7-1.7c0.2,0,0.3,0,0.3,0
								c1.4,0.2,2.7,0.3,4-0.1c0.1,0,0.4,0.1,0.4,0.2c0.7,1.2,0.8,2.5,0.6,3.8c0,0.2-0.3,0.5,0.1,0.6c0.1,0,0.3-0.3,0.4-0.5
								c0,0,0-0.1,0-0.2c-0.1-0.9-0.1-1.8-0.2-2.8c-0.1-0.4-0.3-0.8-0.5-1.3c0.6,0,1.2,0,1.8,0c1.6,0,3.2-0.1,4.7,0.7
								c0.9,0.5,2.1,0.3,3.1,0.2c0.7-0.1,1.4-0.2,2-0.3c0.6-0.1,1.1-0.3,1.7-0.4c1.5-0.2,2.6-1.3,2.9-2.9c0.2-1.4-0.6-2.9-2-3.4
								c-0.9-0.3-1.8-0.5-2.7-0.7c-0.3-0.1-0.7-0.1-1-0.1c-0.7-0.1-1.5-0.2-2.2-0.3c-0.2,0-0.4,0-0.7-0.1c0.1-0.1,0.1-0.1,0.1-0.1
								c2.2-1.7,2.7-4,2.2-6.6c-0.4-1.9-1.8-3.1-3.2-4.3c-0.7-0.5-1.5-0.8-2.4-0.8c-1-0.1-1.9,0.2-2.8,0.7c-0.2-0.5-0.3-1-0.5-1.4
								c0,0,0.1-0.1,0.1-0.1c0.2,0.1,0.3,0.3,0.5,0.4c0.2,0.1,0.3,0.3,0.5,0.3c1,0,1.9,0.1,2.6-0.8c0.1-0.1,0.2-0.1,0.3-0.1
								c0.5-0.1,0.7-0.3,0.9-0.8c0.1-0.2,0.2-0.3,0.3-0.5c0.2-0.3,0.5-0.5,0.7-0.8c0.2-0.3,0.5-0.7,0.7-1c0.1-0.2,0.2-0.4,0.2-0.6
								c0-0.1-0.2-0.3-0.3-0.4c-0.1,0-0.3,0-0.4,0.1c-0.3,0.4-0.6,0.8-0.9,1.2c-0.2,0.4-0.3,0.8-0.8,1c-0.1,0.1-0.2,0.2-0.3,0.4
								c-0.2,0.7-0.7,1.1-1.2,1.6c-0.1,0.1-0.3,0.2-0.4,0.2c-0.3-0.1-0.6-0.2-0.9-0.3c0.1-0.1,0.2-0.2,0.3-0.3
								c1.7-0.9,2.6-2.2,3-4.1c0-0.2,0.2-0.4,0.3-0.4c0.7-0.4,1.2-0.9,1.2-1.7c0-0.9-0.2-1.8-0.9-2.5c-0.9-0.9-1.9-1.6-2.8-2.4
								c-0.6-0.5-1.1-0.9-1.4-1.6c-0.1-0.2-0.2-0.4-0.4-0.6c-0.3-0.4-0.6-0.8-1-1.1c-0.2-0.2-0.2-0.4-0.1-0.7
								c0.4-0.8,0.7-1.7,1.1-2.6c0.3-0.7,0.6-1.3,1.3-1.7c0.5,0.5,0.9,1,1.4,1.4c0.7,0.6,1.4,1.3,2.2,1.9c0.3,0.2,0.8,0.3,1.3,0.3
								c0.4,0,0.9-0.2,1.3,0.1c0.3,0.1,0.5,0,0.4-0.3c-0.2-0.5-0.1-0.9,0-1.4c0.1-0.3,0-0.7-0.2-0.9c-0.3-0.6-0.7-1.1-1.1-1.6
								c-0.6-0.7-1.3-1.3-2-2c0.7-0.5,1.1-0.4,1.4,0.3c0.1,0.3,0.3,0.5,0.4,0.7c1,1.2,1.9,2.5,3.3,3.2c0.1,0.1,0.2,0.1,0.3,0.2
								c-0.2,0.6-0.4,1.2-0.5,1.7c-0.1,0.5-0.2,1-0.3,1.5c-0.1,0.6-0.3,1.1-0.4,1.7c0,0.2,0,0.4,0,0.6c0,0.2-0.1,0.4-0.2,0.5
								c-0.3,0.3-0.6,0.6-0.9,1c-1.3,1.6-0.8,3.7,1.1,4.5c0.2,0.1,0.3,0.3,0.4,0.4c0.2,0.6,0.6,1,1.2,1.2c0.9,0.4,1.9,0.9,2.8,1.3
								c0.3,0.1,0.3,0.4,0.3,0.7c0,0.2,0,0.5,0.1,0.6c0.2,0.3,0.5,0.6,0.5,0.9c0.1,0.7,0.9,1.2,0.6,2c0,0.1,0.1,0.2,0.2,0.3
								c0.1-0.1,0.2-0.2,0.2-0.2c0-0.5,0.2-1-0.3-1.4c-0.2-0.1-0.3-0.4-0.3-0.6c0-0.7-0.1-1.3-0.7-1.8c0.2,0,0.3,0,0.4,0.1
								c0.9,0.4,1.8,0.8,2.7,1.2c1.1,0.5,2.3,0.9,3.5,1.3c0.9,0.4,2,0,2.4-0.9c0.4-0.9,0.1-2-0.7-2.5c-0.3-0.2-0.6-0.4-0.9-0.6
								c-1.2-0.9-2.7-1.3-4.2-1.6c-1.1-0.2-2.1-0.7-3.1-1.1c0.6-0.6,1.2-1,1.7-1.6c0.5-0.6,1-1.2,1.5-1.8c1.4,0.4,2.5,1.2,3.4,2.5
								c0.1,0.1,0.2,0.1,0.4,0.2c0-0.2,0.1-0.3,0.1-0.4c-0.1-0.2-0.2-0.4-0.4-0.6c-0.9-1-1.9-1.7-3.2-2.2c0.4-0.5,0.9-0.9,1.4-1.3
								c1.1-1.1,2.1-2.3,3.7-2.7c0.5-0.1,0.9-0.5,1.2-0.9c0.9-1,1.7-2.1,2.5-3.2c0.4-0.5,0.7-1.1,1-1.6c0.7-1.3,0.4-3-0.8-4
								c-1.2-1-2.9-1-4.1-0.1c-0.7,0.5-1.4,1-2.1,1.5c-0.8,0.6-1.5,1.1-2.2,1.7c-0.1,0.1-0.2,0.1-0.3,0.2c0-0.2,0-0.2,0-0.3
								c0.3-2.6-1-4.4-2.9-5.9c-1.6-1.2-3.6-1.1-5.5-0.9c-1.2,0.1-2.1,0.8-2.8,1.6c0.1-0.5,0.2-1.1,0.3-1.7c0-0.1,0.1-0.1,0.1-0.2
								c0.3-0.4,0.3-0.8,0.1-1.2c-0.1-0.2-0.2-0.4-0.1-0.5c0.2-0.4,0-0.8-0.1-1.2c-0.1-0.3-0.1-0.7-0.2-1c0-0.2-0.1-0.3-0.1-0.5
								c-0.1-0.3-0.4-0.4-0.7-0.3c-0.1,0.1-0.2,0.4-0.2,0.6c-0.1,0.9,0.6,1.7,0.3,2.6c0,0.1,0,0.2,0,0.3c0.3,0.6,0.3,1.3,0.3,2
								c0,0.1-0.1,0.3-0.2,0.4c-0.2,0.2-0.5,0.3-0.7,0.4c0.1-0.8,0.2-1.7,0.2-2.5c0-0.9-0.3-1.7-0.9-2.5c0,0.6,0,1.1,0,1.7
								c-0.3-0.6-0.5-1.1-0.7-1.7c0-0.1,0.1-0.1,0.2-0.2c0.6-0.7,0.7-1.9,0-2.6c-0.6-0.6-1.4-1.1-2.4-1.1c-1.2,0-2.5,0.1-3.7,0.3
								c-0.7,0.1-1.4,0.1-2.1-0.2c-0.3-0.1-0.6-0.1-0.8-0.2c-0.5-0.1-1.1-0.1-1.6-0.2c-0.1,0-0.2-0.2-0.2-0.3
								c-0.4-0.9-0.8-1.8-1.1-2.7c-0.3-0.6-0.5-1.3-0.3-2c1.6-0.1,3.1-0.2,4.6-0.3c0.8,0,1.4-0.4,1.7-1.1c0.1-0.1,0.2-0.2,0.3-0.3
								c0.2-0.2,0.4-0.3,0.6-0.5c-0.2-0.1-0.4-0.3-0.6-0.4c-0.1,0-0.1,0-0.2,0c-0.2-0.7-0.6-1.1-1.2-1.3c-0.6-0.2-1.3-0.3-1.9-0.3
								c-0.9,0-1.8,0-2.9,0c0.3-0.4,0.5-0.6,0.7-0.9c0-0.1,0.2-0.1,0.3-0.1c0.9,0.5,2,0.4,3,0.5c0.7,0.1,1.3,0,2-0.1
								c0.4,0,0.8-0.1,1.1-0.2c0.4,0.7,0.8,1.3,1.2,2c0.4,0.5,0.8,1,1.1,1.5c0.1,0.1,0.1,0.2,0.1,0.3c0.2,0.3,0.4,0.6,0.7,1
								c0.1,0.1,0.2,0.3,0.2,0.4c0,0.4,0,0.9,0,1.3c0.1,2,2,3.2,3.9,2.5c0.3-0.1,0.5-0.1,0.7,0.1c0.5,0.3,1.1,0.2,1.6,0
								c1-0.4,1.9-0.7,2.9-1.1c0.3-0.1,0.5,0,0.7,0.3c0.1,0.1,0.2,0.3,0.4,0.3c0.6,0.2,1.2,0.4,1.8,0.6c0.5,0.1,0.9,0.3,1.2,0.6
								c0.1,0.1,0.2,0.1,0.4,0.1c0-0.1,0-0.3,0-0.4c-0.3-0.3-0.6-0.8-1.2-0.7c-0.2,0-0.4-0.1-0.6-0.2c-0.5-0.4-1-0.9-1.8-0.8
								c0.1-0.1,0.2-0.2,0.4-0.2c1.3-0.5,2.5-0.9,3.7-1.6c0.7-0.4,1.4-0.7,2.1-0.9c1-0.3,1.7-1.3,1.4-2.3c-0.3-1-1.3-1.6-2.4-1.3
								c-0.2,0.1-0.5,0.1-0.7,0.2c-0.9,0.1-1.8,0.5-2.6,0.9c-1,0.5-2,1.1-3,1.7c-0.5,0.3-1.1,0.5-1.7,0.7c0-0.2,0-0.3,0-0.3
								c0.2-1.4,0.3-2.7-0.1-4c0-0.1,0.1-0.4,0.2-0.4c1.2-0.7,2.5-0.8,3.9-0.6c0.2,0,0.3-0.1,0.5-0.1c-0.1-0.1-0.2-0.3-0.4-0.3
								c-0.8,0-1.6-0.1-2.3,0c-0.7,0.1-1.3,0.4-2,0.6c0-0.1,0-0.3,0-0.4c0-1.2,0-2.4,0-3.5c0-0.5,0.1-1.1,0.3-1.5
								c0.7-1.2,0.7-2.6,0.6-3.9c-0.1-0.8-0.2-1.6-0.4-2.4c-0.1-0.5-0.3-0.9-0.4-1.3c-0.2-1.6-1.5-2.8-3.1-2.9c-1.6-0.1-3,1-3.4,2.5
								c-0.3,1.4-0.6,2.9-0.8,4.4c-0.1,0.6-0.1,1.1-0.1,1.8c-0.7-0.9-1.4-1.6-2.3-1.9c-0.6-0.2-1.2-0.3-1.8-0.5
								c-1.6-0.4-3.1-0.1-4.4,0.9c-0.7,0.5-1.3,1.1-2,1.8c-0.9,0.9-1.4,2-1.3,3.3c0.1,0.8,0.3,1.6,0.5,2.5c-0.3,0.1-0.8,0.3-1.3,0.4
								c0,0-0.1-0.1-0.1-0.1c0.1-0.2,0.3-0.3,0.4-0.5c0.1-0.2,0.3-0.4,0.3-0.6c0-1,0-1.9-0.8-2.6c-0.1-0.1-0.1-0.2-0.1-0.3
								c0-0.5-0.3-0.8-0.8-0.9c-0.1,0-0.3-0.1-0.4-0.2c-0.2-0.5-0.6-0.6-1-0.8c-0.3-0.2-0.5-0.4-0.8-0.6c-0.1-0.1-0.3-0.2-0.4-0.3
								c-0.3-0.2-0.6,0-0.7,0.3c0,0.1,0.2,0.4,0.3,0.5c0.5,0.7,1.5,0.7,2,1.5c0.1,0.1,0.2,0.2,0.3,0.2c0.7,0.2,1.1,0.7,1.6,1.2
								c0.1,0.1,0.2,0.2,0.2,0.3c-0.1,0.3-0.2,0.6-0.3,0.9c0,0-0.1,0-0.1-0.1c-0.1-0.1-0.1-0.1-0.1-0.2c-0.9-1.7-2.3-2.6-4.1-3
								c-0.2,0-0.3-0.2-0.4-0.3c-0.4-0.7-0.9-1.2-1.7-1.2c-0.9,0-1.8,0.2-2.5,0.9c-0.9,0.9-1.6,1.9-2.4,2.8
								c-0.5,0.6-0.9,1.1-1.6,1.4c-0.2,0.1-0.5,0.2-0.6,0.4c-0.4,0.3-0.7,0.7-1.1,1c-0.1,0.1-0.4,0.1-0.6,0
								c-0.9-0.3-1.8-0.7-2.6-1.1c-0.6-0.3-1.3-0.6-1.7-1.3c0.5-0.5,1-1,1.5-1.5c0.6-0.7,1.2-1.4,1.8-2.1c0.4-0.5,0.4-1.1,0.3-1.6
								c-0.1-0.2-0.2-0.4,0-0.6c0.1-0.1,0.1-0.4,0.1-0.6c-0.2,0-0.5,0-0.7,0.1c-0.2,0.1-0.4,0.1-0.6,0c-0.6-0.2-1.1-0.2-1.6,0.2
								c-0.7,0.5-1.3,1-1.9,1.5c-0.5,0.5-1,1-1.5,1.5c-0.4-0.7-0.3-1.1,0.3-1.4c0.3-0.1,0.5-0.3,0.8-0.5c1.2-1,2.4-1.9,3.2-3.3
								c0-0.1,0.1-0.2,0.2-0.3c0.4,0.2,0.8,0.4,1.3,0.5c1.2,0.2,2.5,0.3,3.7,0.7c0.2,0.1,0.4,0,0.5,0c0.2,0,0.4,0.1,0.5,0.2
								c0.3,0.3,0.6,0.6,1,0.9c1.6,1.3,3.7,0.8,4.5-1c0.1-0.2,0.3-0.3,0.4-0.4c0.6-0.2,1-0.6,1.3-1.2c0.4-0.9,0.9-1.9,1.3-2.8
								c0.1-0.3,0.4-0.4,0.7-0.3c0.2,0,0.4,0,0.6-0.1c0.3-0.2,0.6-0.5,0.9-0.6c0.7-0.1,1.2-0.9,2-0.6c0.1,0,0.2-0.1,0.2-0.2
								c0-0.1-0.1-0.2-0.2-0.2c-0.5,0-1-0.2-1.4,0.2c-0.3,0.2-0.7,0.2-1.1,0.4c-0.3,0.1-0.7,0.2-1,0.3c-0.1,0.1-0.2,0.2-0.5,0.4
								c0.1-0.2,0.1-0.4,0.1-0.4c0.3-0.7,0.7-1.4,1-2.1c0.5-1.4,1-2.7,1.5-4.1c0.3-0.9,0-1.9-0.8-2.3c-0.8-0.5-1.9-0.3-2.4,0.5
								c-0.5,0.7-1,1.5-1.4,2.2c-0.4,1-0.8,2.1-1,3.1c-0.2,1.1-0.7,2-1.1,3.1c-0.1-0.2-0.1-0.2-0.2-0.3c-0.9-1.1-1.8-2.2-3-2.9
								c-0.1,0-0.1-0.3-0.1-0.4c0.4-1.4,1.3-2.4,2.4-3.2c0.1-0.1,0.1-0.2,0.2-0.4c-0.1,0-0.3-0.1-0.4-0.1c-0.2,0.1-0.4,0.2-0.6,0.4
								C160.1,179.8,159.3,180.8,158.9,182.1z M193.2,215.8C193.2,215.8,193.1,215.9,193.2,215.8c0.1,0.3,0.2,0.6,0.4,0.9
								c0,0.1,0.1,0.1,0.2,0.2c0.2,0.6,0.7,0.7,1.3,0.5c0.7-0.2,1.2-0.8,1.6-1.3c0.7-0.7,0.8-1.6,1.2-2.4c0-0.1,0-0.2,0-0.3
								c0-0.3,0-0.7-0.1-1c0-0.2-0.1-0.3-0.2-0.5c-0.1,0.1-0.3,0.3-0.3,0.4c-0.1,0.7-0.4,1.4-0.8,2.1c-0.1,0.2-0.2,0.3-0.2,0.5
								c-0.1,0.7-0.8,1-1.2,1.4c-0.1,0.2-0.5,0.2-0.7,0.2c-0.4,0-0.7-0.3-0.7-0.7c0-0.2,0.1-0.4,0.1-0.6c0-0.1-0.1-0.3-0.2-0.3
								c-0.1,0-0.3,0.1-0.3,0.2C193.2,215.4,193.2,215.6,193.2,215.8z M164.2,271.7c-0.1,0-0.4,0-0.6,0.1c-0.2,0.1-0.3,0.3-0.5,0.4
								c-0.6,0.3-0.7,0.7-0.5,1.3c0.2,0.7,0.8,1.1,1.2,1.6c0.7,0.7,1.6,0.8,2.4,1.2c0.1,0,0.2,0,0.2,0c0.4,0,0.8,0,1.2-0.1
								c0.1,0,0.3-0.1,0.4-0.2c-0.1-0.1-0.2-0.3-0.3-0.3c-0.3-0.1-0.6-0.1-0.9-0.2c-0.6-0.2-1.1-0.6-1.7-0.8c-0.7-0.2-1-0.7-1.4-1.2
								c-0.2-0.2-0.2-0.5-0.2-0.8c0-0.4,0.3-0.7,0.7-0.7c0.2,0,0.3,0,0.5,0c0.1,0,0.2-0.1,0.3-0.1c-0.1-0.1-0.1-0.3-0.2-0.3
								C164.6,271.7,164.4,271.7,164.2,271.7z M108.3,242.7c0,0,0.1,0,0.1-0.1c-0.2-0.3-0.3-0.6-0.5-0.9c0-0.1-0.1-0.2-0.1-0.2
								c-0.2-0.5-0.7-0.7-1.2-0.5c-0.7,0.2-1.2,0.8-1.7,1.3c-0.7,0.7-0.8,1.6-1.2,2.4c0,0.1,0,0.2,0,0.2c0,0.4,0,0.8,0.1,1.2
								c0,0.1,0.1,0.3,0.2,0.4c0.1-0.1,0.2-0.2,0.3-0.4c0.1-0.3,0.1-0.6,0.2-0.8c0.2-0.6,0.6-1.1,0.8-1.7c0.3-0.8,0.8-1.3,1.6-1.6
								c0.6-0.2,1,0.1,1,0.7c0,0.2-0.1,0.3,0,0.5c0,0.1,0.1,0.2,0.2,0.3c0.1-0.1,0.3-0.1,0.3-0.2
								C108.3,243.1,108.3,242.9,108.3,242.7z M137.4,186.8C137.4,186.8,137.4,186.8,137.4,186.8c0.3-0.1,0.6-0.2,0.9-0.4
								c0.1,0,0.2-0.1,0.2-0.2c0.5-0.2,0.7-0.7,0.5-1.1c-0.2-0.5-0.5-1-0.9-1.4c-0.5-0.5-1.1-0.7-1.6-1.1c-0.9-0.7-1.9-0.4-2.8-0.5
								c-0.1,0-0.2,0.1-0.2,0.2c0,0.1,0.1,0.3,0.2,0.3c0.5,0.1,1,0.2,1.5,0.4c0.6,0.2,1.2,0.4,1.7,0.8c0.5,0.4,1,0.8,1.1,1.5
								c0.1,0.5-0.1,0.9-0.7,0.9c-0.2,0-0.3,0-0.5,0c-0.1,0-0.2,0.1-0.4,0.2c0.1,0.1,0.2,0.3,0.3,0.3
								C137,186.8,137.2,186.8,137.4,186.8z M192,252.6c0,0,0-0.1,0-0.1c1,0.2,1.8-0.4,2.7-0.7c0.2,0,0.3-0.2,0.4-0.3
								c0.3-0.3,0.5-0.6,0.8-0.9c0.1-0.1,0.1-0.3,0.2-0.4c-0.2,0-0.4,0-0.5,0.1c-0.6,0.5-1.3,0.8-2.1,1c-0.2,0.1-0.4,0.2-0.6,0.3
								c-0.6,0-1.2,0.1-1.8,0c-0.2,0-0.4-0.2-0.6-0.4c-0.3-0.4-0.4-0.7,0.4-1.3c0.1-0.1,0.1-0.3,0.2-0.4c-0.1,0-0.3-0.1-0.4,0
								c-0.4,0.3-0.9,0.6-0.8,1.2c0,0.1,0,0.2-0.1,0.3c-0.2,0.5,0,1,0.5,1.2C190.8,252.3,191.4,252.4,192,252.6z M127.4,270.5
								c0,0,0.1,0,0.1,0c-0.2,1,0.4,1.8,0.7,2.7c0,0.2,0.2,0.3,0.3,0.4c0.3,0.3,0.6,0.5,0.9,0.8c0.1,0.1,0.3,0.1,0.4,0.2
								c0-0.2,0-0.4-0.1-0.5c-0.5-0.6-0.8-1.3-1-2.1c0-0.2-0.2-0.4-0.2-0.5c-0.1-0.6-0.1-1.2-0.1-1.8c0-0.2,0.2-0.5,0.4-0.6
								c0.5-0.4,0.7-0.3,1.2,0.4c0.1,0.1,0.3,0.1,0.4,0.2c0-0.1,0.1-0.3,0-0.4c-0.3-0.4-0.5-0.9-1.2-0.8c-0.1,0-0.2,0-0.3-0.1
								c-0.5-0.2-1.1,0-1.2,0.5C127.7,269.4,127.6,269.9,127.4,270.5z M109.5,205.9c0,0,0,0.1,0,0.1c-1-0.2-1.8,0.4-2.7,0.7
								c-0.2,0-0.3,0.2-0.4,0.3c-0.3,0.3-0.5,0.5-0.7,0.8c-0.1,0.1-0.1,0.3-0.2,0.5c0.2,0,0.4,0,0.5-0.1c0.6-0.5,1.3-0.8,2-1
								c0.2-0.1,0.4-0.2,0.6-0.2c0.6-0.1,1.2-0.1,1.8-0.1c0.2,0,0.5,0.2,0.6,0.4c0.4,0.4,0.3,0.7-0.4,1.3c-0.1,0.1-0.1,0.3-0.2,0.4
								c0.1,0,0.3,0.1,0.4,0c0.4-0.3,0.9-0.6,0.8-1.2c0-0.1,0-0.2,0.1-0.3c0.2-0.5,0-1-0.5-1.2C110.6,206.2,110.1,206.1,109.5,205.9
								z M174.1,188.1c-0.1-0.6-0.2-1-0.3-1.5c-0.1-0.5-0.3-0.9-0.5-1.3c-0.1-0.2-0.2-0.3-0.3-0.4c-0.3-0.3-0.6-0.5-0.9-0.8
								c-0.1-0.1-0.3-0.1-0.4-0.2c0,0.2,0,0.4,0.1,0.5c0.5,0.6,0.8,1.3,1,2c0.1,0.2,0.2,0.4,0.3,0.7c0,0.6,0.1,1.2,0,1.8
								c0,0.2-0.2,0.4-0.4,0.6c-0.4,0.4-0.8,0.2-1.3-0.3c-0.1-0.1-0.3-0.1-0.4-0.2c0,0.2-0.1,0.4,0,0.5c0.3,0.4,0.6,0.9,1.2,0.8
								c0.1,0,0.2,0,0.3,0.1c0.5,0.2,1,0,1.2-0.5C173.8,189.1,173.9,188.6,174.1,188.1z M167.3,190c0,0,0.1,0,0.1,0
								c0-0.3,0-0.5-0.1-0.8c-0.1-0.3-0.4-0.4-0.6-0.3c-0.2,0.1-0.4,0.3-0.4,0.3c0.3,0.8,0.5,1.7,0.5,2.6c0,0.5,0,1,0.1,1.5
								c0,0.1,0.2,0.3,0.3,0.4c0.1-0.1,0.2-0.3,0.2-0.4C167.4,192.3,167.3,191.2,167.3,190z M111.5,212.7c0,0,0-0.1,0-0.1
								c-0.3,0-0.5,0-0.8,0.1c-0.4,0.1-0.4,0.4-0.2,0.7c0.1,0.1,0.3,0.3,0.3,0.3c1.1-0.4,2.2-0.5,3.4-0.6c0.2,0,0.5,0,0.7-0.1
								c0.1,0,0.2-0.2,0.3-0.3c-0.1-0.1-0.2-0.2-0.4-0.2C113.8,212.6,112.7,212.7,111.5,212.7z M190,245.8c0,0,0,0.1,0,0.1
								c0.3,0,0.5,0,0.8-0.1c0.4-0.1,0.4-0.4,0.2-0.7c-0.1-0.1-0.3-0.3-0.3-0.3c-1.1,0.4-2.3,0.5-3.5,0.6c-0.2,0-0.5,0-0.7,0.1
								c-0.1,0-0.2,0.2-0.3,0.3c0.1,0.1,0.2,0.2,0.4,0.2C187.7,245.9,188.8,245.8,190,245.8z M134.2,268.4c0,0-0.1,0-0.1,0
								c0,0.3,0,0.5,0.1,0.8c0.1,0.4,0.4,0.4,0.7,0.2c0.1-0.1,0.3-0.3,0.3-0.3c-0.2-0.7-0.4-1.4-0.5-2.2c0-0.6-0.1-1.3-0.2-1.9
								c0-0.1-0.2-0.2-0.3-0.3c-0.1,0.1-0.2,0.3-0.2,0.4C134.1,266.2,134.2,267.3,134.2,268.4z M137.4,192.4
								c-0.1-0.1-0.2-0.2-0.3-0.3c-0.6-0.5-1.2-1.1-1.8-1.6c-0.1-0.1-0.2-0.2-0.3-0.3c-0.3-0.3-0.5-0.7-0.9-0.9
								c-0.4-0.2-0.6,0.1-0.7,0.4c-0.1,0.3,0,0.3,0.3,0.4c0.5,0.2,0.9,0.5,1.3,0.8c0.6,0.5,1.2,1.1,1.8,1.6c0.1,0.1,0.2,0.1,0.4,0.1
								C137.3,192.6,137.3,192.5,137.4,192.4z M164.4,265.8c-0.1,0.1-0.2,0.1-0.2,0.2c0,0.1,0,0.3,0.1,0.4c0.6,0.6,1.3,1.1,1.9,1.7
								c0.1,0.1,0.2,0.2,0.2,0.3c0.3,0.3,0.5,0.7,0.9,0.9c0.4,0.2,0.6-0.1,0.7-0.4c0.2-0.3,0-0.4-0.3-0.5c-0.5-0.2-0.9-0.5-1.3-0.8
								c-0.6-0.5-1.2-1-1.8-1.5C164.6,266,164.5,265.9,164.4,265.8z M190.2,211.8c-0.1,0.1-0.2,0.1-0.3,0.2c-0.4,0.9-1,1.7-1.7,2.4
								c-0.3,0.3-0.5,0.6-0.8,0.9c-0.1,0.1,0,0.3,0,0.4c0.1,0,0.3,0,0.4-0.1c0.3-0.3,0.5-0.6,0.8-0.9c0.7-0.7,1.3-1.3,2-2
								c0.1-0.1,0.2-0.4,0.1-0.5C190.6,212.1,190.4,212,190.2,211.8z M111.5,246.8c0.1-0.1,0.1-0.2,0.1-0.4c0.4-0.8,0.9-1.6,1.5-2.3
								c0.3-0.3,0.6-0.7,0.9-1c0.1-0.1,0-0.3,0.1-0.4c-0.1,0-0.3,0-0.4,0.1c-0.3,0.3-0.5,0.6-0.8,0.8c-0.7,0.7-1.3,1.3-2,2
								c-0.1,0.1-0.2,0.4-0.1,0.5C110.9,246.4,111.1,246.5,111.5,246.8z"/>
							<path class="st0" d="M103.4,171.6c-0.5,0.5-0.9,1-1.5,1.6c-0.4-0.2-0.8-0.5-1.3-0.8c-0.3-0.1-0.6-0.2-1-0.2
								c-0.7,0-1.3-0.3-2-0.6C99.6,171.6,101.5,171.6,103.4,171.6z"/>
							<path class="st0" d="M188.9,171.6c0.1,0.7,0.2,1.4,0.3,2.1c-0.1,0-0.1,0-0.2,0.1c-0.5-0.4-0.9-0.8-1.4-1.1
								c-0.5-0.3-1-0.4-1.5-0.8c-0.2-0.1-0.5-0.2-0.8-0.3C186.6,171.6,187.8,171.6,188.9,171.6z"/>
							<path class="st0" d="M124.4,244.8c0.8-0.1,1.5-0.1,2.3-0.2c0.8-0.1,1.5-0.4,2.3-0.5c0.4-0.1,0.9-0.1,1.3-0.2
								c0.4-0.1,0.5,0.1,0.5,0.5c0,0.6,0,1.2,0,1.8c-0.6-0.3-1.3-0.6-1.9-0.9c-0.7-0.3-1.1-0.1-1.2,0.8c-1.2-0.2-2.2-0.7-3.3-1.1
								C124.3,244.9,124.3,244.9,124.4,244.8z"/>
							<path class="st0" d="M165.4,249.3c0.8,0,1.6,0,2.3,0c-0.3,0.6-0.6,1.2-0.9,1.9c-0.3,0.7-0.1,1.1,0.9,1.2
								c-0.4,1.1-0.8,2.2-1.1,3.3c-0.1,0-0.1,0-0.2,0c-0.1-0.6-0.1-1.3-0.2-1.9c-0.2-0.9-0.4-1.8-0.6-2.7
								C165.5,250.5,165.4,250,165.4,249.3z"/>
							<path class="st0" d="M173.9,212.5c1.1,0.2,2.2,0.7,3.3,1.1c0,0,0,0.1,0,0.1c-0.6,0.1-1.2,0.1-1.8,0.2
								c-0.9,0.2-1.8,0.4-2.7,0.6c-0.5,0.1-1.1,0.1-1.8,0.2c0-0.8,0-1.6,0-2.3c0.6,0.3,1.2,0.6,1.8,0.9
								C173.4,213.5,173.8,213.3,173.9,212.5z"/>
							<path class="st0" d="M134,206.1c0.1-0.8,0.8-3,1.2-3.3c0.1,0.6,0.1,1.2,0.2,1.8c0.2,0.9,0.4,1.8,0.6,2.7
								c0.1,0.6,0.1,1.1,0.2,1.8c-0.8,0-1.6,0-2.3,0c0.3-0.6,0.6-1.2,0.9-1.9C135.1,206.6,134.8,206.2,134,206.1z"/>
							<path class="st0" d="M152.9,203.1c0.7-0.3,1.5-0.5,2.2-0.8c0.6-0.3,0.6-0.7,0.1-1.3c1-0.7,2.1-1.1,3.1-1.5c0,0,0,0.1,0,0.1
								c-0.5,0.6-0.9,1.1-1.4,1.7c-0.3,0.4-0.5,0.8-0.8,1.2c-0.5,0.8-1,1.5-1.6,2.3C154,204.2,153.5,203.6,152.9,203.1z"/>
							<path class="st0" d="M126.4,225.4c-0.7,0.6-1.3,1-1.8,1.4c-0.2-0.5-0.4-1.2-0.7-1.9c-0.3-0.7-0.7-0.7-1.4-0.2
								c-0.5-1.1-1-2.1-1.5-3.1c0,0,0.1,0,0.1-0.1c0.6,0.5,1.1,1,1.7,1.4c0.4,0.3,0.8,0.5,1.2,0.8
								C124.7,224.3,125.5,224.8,126.4,225.4z"/>
							<path class="st0" d="M146.3,257.6c-1.1,0.5-2.1,1-3.2,1.5c0,0,0-0.1-0.1-0.1c0.5-0.6,0.9-1.1,1.4-1.7
								c0.3-0.4,0.5-0.9,0.8-1.3c0.5-0.7,1-1.5,1.6-2.4c0.6,0.7,1,1.3,1.5,1.8c-0.5,0.2-1.1,0.4-1.8,0.6
								C145.8,256.4,145.7,256.8,146.3,257.6z"/>
							<path class="st0" d="M175.2,233c0.6-0.5,1.2-1,1.7-1.4c0.2,0.5,0.4,1.2,0.7,1.9c0.3,0.7,0.7,0.8,1.4,0.3
								c0.7,1,1.1,2.1,1.6,3.1c0,0-0.1,0-0.1,0c-0.6-0.5-1.1-0.9-1.7-1.4c-0.4-0.3-0.8-0.5-1.2-0.8c-0.8-0.5-1.6-1-2.3-1.6
								C175.3,233.1,175.3,233.1,175.2,233z"/>
							<path class="st0" d="M150.9,230.7c-0.8-0.1-1.7-0.8-1.6-1.3c0.1-0.4,0.1-0.8,0.4-1.1c0.2-0.3,0.6-0.5,1-0.5
								c0.3,0,0.8,0.1,1.1,0.3c0.3,0.2,0.5,0.6,0.6,1C152.2,229.9,151.5,230.8,150.9,230.7z"/>
							<path class="st0" d="M186,223.4c-0.4-0.2-0.9-0.4-1.4-0.7c0.2-0.1,0.4-0.2,0.5-0.2c0.7,0.2,1-0.3,1.4-0.7
								c0,0,0.1-0.1,0.2-0.2C186.5,222.3,186.2,222.8,186,223.4z"/>
							<path class="st0" d="M144.9,194c-0.2,0.4-0.4,0.8-0.6,1.3c0,0-0.1,0-0.1,0c0-0.8-0.2-1.6-0.9-2
								C143.8,193.5,144.3,193.8,144.9,194z"/>
							<path class="st0" d="M114.8,236.8c0.3-0.6,0.5-1.1,0.8-1.7c0.4,0.2,0.8,0.4,1.4,0.7c-0.2,0.1-0.4,0.2-0.5,0.2
								c-0.7-0.2-1,0.3-1.4,0.7C115,236.7,114.9,236.7,114.8,236.8z"/>
							<path class="st0" d="M156.6,264.5c0.2-0.4,0.4-0.8,0.6-1.3c0,0,0.1,0,0.1,0c0,0.8,0.2,1.6,0.9,2
								C157.7,265,157.2,264.7,156.6,264.5z"/>
							<path class="st0" d="M151.6,248.4c0.3-0.4,0.6-0.8,0.9-1.2c0.1,0.1,0.2,0.2,0.3,0.2C152.7,248.1,152.2,248.3,151.6,248.4z"/>
							<path class="st0" d="M149,211.3c-0.1-0.1-0.2-0.2-0.3-0.2c0.1-0.7,0.6-0.9,1.2-1C149.6,210.5,149.3,210.9,149,211.3z"/>
							<path class="st0" d="M132.8,231c-0.1,0.2-0.2,0.3-0.2,0.3c-0.7-0.1-0.9-0.6-1-1.2C132,230.4,132.4,230.7,132.8,231z"/>
							<path class="st0" d="M169.9,228.4c-0.4-0.3-0.8-0.6-1.2-0.9c0.1-0.1,0.1-0.2,0.2-0.3C169.6,227.3,169.8,227.8,169.9,228.4z"
								/>
							<path class="st0" d="M136.9,217.8c-0.2,0-0.3,0.1-0.4,0.1c-0.4-0.6-0.3-1,0.2-1.6C136.7,216.8,136.8,217.3,136.9,217.8z"/>
							<path class="st0" d="M164.8,242.2c-0.1-0.5-0.1-1-0.2-1.5c0.1,0,0.3-0.1,0.4-0.1C165.4,241.2,165.2,241.7,164.8,242.2z"/>
							<path class="st0" d="M162.2,215.4c0-0.1-0.1-0.3-0.1-0.4c0.6-0.4,1.1-0.2,1.6,0.2C163.2,215.2,162.7,215.3,162.2,215.4z"/>
							<path class="st0" d="M137.8,243.3c0.5-0.1,1-0.1,1.5-0.2c0,0.1,0.1,0.3,0.1,0.4C138.8,243.9,138.3,243.8,137.8,243.3z"/>
							<path class="st0" d="M130,248.7c-0.2-0.4-0.4-0.8-0.6-1.3C130.3,248,130.3,248,130,248.7z"/>
							<path class="st0" d="M171.5,209.7c0.2,0.4,0.4,0.8,0.6,1.3C171.2,210.5,171.2,210.5,171.5,209.7z"/>
							<path class="st0" d="M168.9,250.6c0.6-0.9,0.6-0.9,1.4-0.7C169.9,250.2,169.4,250.4,168.9,250.6z"/>
							<path class="st0" d="M178.8,231.3c-0.2-0.5-0.4-1.1,0.5-1.2C179.1,230.5,178.9,230.9,178.8,231.3z"/>
							<path class="st0" d="M131.3,208.5c0.4-0.2,0.8-0.4,1.3-0.6C132,208.8,132,208.8,131.3,208.5z"/>
							<path class="st0" d="M150,257.7c-0.5-0.2-0.9-0.3-1.4-0.5C149.6,257,149.6,257,150,257.7z"/>
							<path class="st0" d="M151.5,200.8c0.5,0.2,0.9,0.3,1.3,0.5C151.9,201.5,151.9,201.5,151.5,200.8z"/>
							<path class="st0" d="M122.8,227.1c0.2,1.1,0.2,1.1-0.5,1.4C122.4,228,122.6,227.6,122.8,227.1z"/>
						</g>
					</g>
				</g>
			</g>
		</g>
	</g>
</g>
<path class="st0" d="M459.3,470.8c-1.9-1.5-3.9-2.6-6.5-2.7c-1.5,0-3.1-0.9-4.6-1.4c-1.9-0.5-3.7-1.3-5.6-1.4
	c-2.3-0.1-4.2-1.1-6-2.2c-1-0.6-1.9-1.3-2.7-1.8c-1.2,1.6-2.2,3-3.4,4.4c-1.6,1.9-3.5,2.5-6,1.7c-1-0.3-2.2,0-3.3,0.1
	c-2,0.2-3.9,0.5-5.9,0.6c-0.4,0-0.9-0.3-1.4-0.5c0.2-0.4,0.4-1,0.7-1.2c2.8-2.2,6-4.1,8.2-6.7c1.8-2.1,3.7-4.6,4.1-7.7
	c0.3-2.4,0.8-4.8,1-7.2c0.1-1.2-0.2-2.5-0.2-3.7c0-4.2-0.1-8.4,0-12.6c0-1.5-0.7-2-1.9-2c-1.8,0-3.5-0.2-5.1-1.1
	c-1.1-0.6-2-1.2-1.9-2.6c0.2-2.1,0.6-4.1,0.9-6.1c0.1-0.7,0.4-1.3,0.8-2.2c-2.2,0.3-4.1-0.1-6.1,1c-2.2,1.1-5,1.2-7.6,1.6
	c-1.6,0.2-3.2,0-4.9,0.1c-1.3,0.1-2.4-0.2-3.4-1.2c-0.4-0.4-1.3-0.3-2-0.3c-1.2-0.1-2.6,0.4-3.5-0.2c-1-0.6-0.9-2-0.2-3.2
	c0.6-1.1-0.3-2.4-1.5-2.7c-1.5-0.3-3-0.7-4.4-1.2c-0.5-0.2-1-1-0.9-1.5c0.1-0.6,0.6-1.3,1.2-1.5c0.5-0.3,1.3-0.2,1.9,0
	c1.6,0.3,3.2,0.7,4.8,1c1.4,0.3,2.3,2.4,1.6,4c-0.7,1.9,0,3.1,1.9,3.2c3.4,0.2,6.8,0.6,10.1,0.2c2.5-0.3,5.4-0.2,7-3
	c0.3-0.5,1.4-0.8,2.2-0.9c2.3-0.3,4.6-0.4,6.9-0.8c2.5-0.4,4.5,1.7,3.7,4.1c-0.3,1-1.2,1.9-1.7,2.9c-0.7,1.4-1.4,2.9-1.9,4.4
	c-0.1,0.3,0.6,1.1,1,1.1c0.9,0.1,1.8-0.1,2.6-0.4c3.1-1.2,6.8,1.3,6.8,4.6c0,3.7-0.1,7.4,0,11.2c0.1,1.8,1,3.6,1.2,5.5
	c0.2,1.7,0.4,3.5,0,5.2c-0.3,1.4-0.2,2.3,0.8,3.4c2.4,2.6,5.6,3.1,8.8,3.4c0.6,0.1,1.2,0,1.8,0.1c3.9,1.1,7.9,1,11.9,1.1
	c2.5,0.1,4.5,1.2,6.6,2.2c1.5,0.8,3.2,1.4,4.6,2.4c2.4,1.6,4.7,3.5,7.1,5.2c0.9,0.7,2,1.2,3.1,1.8c0,1.2,0,2.4,0,3.6
	C473.1,470.8,466.2,470.8,459.3,470.8z"/>
<path class="st0" d="M21.9,470.8c1.7-2.2,3.5-4.3,5-6.6c1.8-2.8,3.6-5.7,5-8.7c0.8-1.8,0.5-4.1,1.3-5.9c1.1-2.6,1.9-5.2,2-8.1
	c0.1-1.6,1.2-3.1,1.9-4.6c0.5-1,1.3-1.9,1.9-2.7c-1.8-1.5-3.6-2.6-5-4.2c-0.8-0.9-1.5-2.6-1.3-3.7c0.5-3,0-5.9-0.5-8.8
	c-0.1-0.9-0.1-1.8-0.1-2.6c0-0.3,0.4-0.7,0.6-0.7c0.3,0,0.8,0.2,1.1,0.4c1.1,1.3,2.2,2.7,3.3,4.1c1.2,1.6,2.1,3.9,3.8,4.7
	c2.6,1.2,4.5,3.7,7.5,3.8c1.5,0.1,3-0.1,4.5,0.2c6.5,1.4,13,0.1,19.5,0.5c1.4,0.1,1.6-0.9,1.5-1.9c-0.1-1.9,0.1-3.7,1.3-5.3
	c0.6-0.7,1.5-1.7,2.3-1.6c2.8,0.1,5.5,0.6,8.4,1c-0.2-1.5,0.4-3.3-0.8-5.4c-1.1-1.8-1.3-4.2-1.6-6.4c-0.2-1.9,0-3.8-0.1-5.8
	c-0.1-1.6,0-2.9,1.4-4.1c0.3-0.3,0.1-1.2,0.2-1.9c0-1.1-0.4-2.5,0.1-3.3c0.7-1.1,2.1-1,3.4-0.3c1.1,0.6,2.4-0.3,2.7-1.6
	c0.3-1.5,0.7-3,1.3-4.4c0.2-0.5,1.1-0.9,1.7-0.9c0.5,0,1.1,0.7,1.3,1.2c0.2,0.5,0.2,1.2,0,1.8c-0.3,1.7-0.7,3.4-1.1,5
	c-0.3,1.4-2.4,2.2-4,1.6c-1.8-0.7-3.1,0-3.2,2c-0.2,3.4-0.6,6.8-0.2,10c0.3,2.5,0.2,5.4,3,7c0.5,0.3,0.7,1.4,0.8,2.2
	c0.3,2.3,0.4,4.6,0.8,6.9c0.3,2.4-1.6,4.4-4,3.7c-1.1-0.3-2-1.1-3-1.6c-1.4-0.7-2.8-1.6-4.3-2c-1.4-0.4-1.5,0.9-1.4,1.9
	c0.1,1.4,0.7,2.8,0.6,4.2c-0.2,2.6-2.2,4.3-4.8,4.3c-2.9,0-5.8,0.2-8.6,0c-2.8-0.3-5.2,1-7.8,1.3c-1.7,0.2-3.5,0.3-5.2,0
	c-1.4-0.3-2.3-0.2-3.3,0.8c-2.6,2.3-3,5.5-3.4,8.6c-0.2,1.2-0.5,2.3-0.6,3.5c-0.1,1.3-0.1,2.6-0.2,3.9c-0.2,2.3-0.5,4.5-0.5,6.8
	c0,2.5-1.3,4.4-2.4,6.5c-0.8,1.6-1.6,3.3-2.3,5C34,470.8,27.9,470.8,21.9,470.8z"/>
<path class="st0" d="M475.2,33c-2.3,3.8-4.6,7.6-6.8,11.4c-0.2,0.3-0.4,0.7-0.4,1c0.2,2.9-1,5.5-2.2,8.1c-0.5,1.1-0.8,2.6-0.7,3.8
	c0.1,2.8-1.1,5-2.7,7.1c-0.5,0.7-0.9,1.5-1.2,2.1c1.7,1.4,3.6,2.6,5,4.2c0.8,0.9,1.5,2.4,1.3,3.5c-0.5,3.1,0,6,0.5,8.9
	c0.1,0.9,0.1,1.8,0.1,2.6c0,0.3-0.4,0.7-0.6,0.7c-0.3,0-0.8-0.2-1-0.5c-1.1-1.3-2.2-2.7-3.3-4.1c-1.2-1.6-2.1-4-3.8-4.7
	c-2.6-1.1-4.5-3.7-7.6-3.8c-1.3,0-2.7,0.1-3.9-0.2c-6.6-1.4-13.3-0.2-20-0.6c-1.4-0.1-1.5,0.9-1.5,1.9c0,1.8,0.1,3.6-1.2,5.1
	c-0.6,0.7-1.6,1.8-2.3,1.8c-2,0-4.1-0.4-6.1-0.8c-0.7-0.1-1.3-0.5-2.3-0.8c0.3,2.2-0.3,4,0.9,6c1.1,1.7,1.3,4.1,1.6,6.2
	c0.2,2,0,4,0.1,5.9c0.1,1.6-0.1,2.9-1.4,4.1c-0.3,0.3-0.1,1.2-0.1,1.9c0,1.1,0.4,2.5-0.1,3.3c-0.7,1.1-2.1,1-3.4,0.3
	c-0.9-0.5-2.4,0.3-2.6,1.3c-0.4,1.6-0.7,3.1-1.2,4.6c-0.2,0.5-1.1,1-1.6,1c-0.5,0-1.2-0.7-1.5-1.2c-0.2-0.5-0.1-1.3,0-2
	c0.3-1.6,0.7-3.1,1-4.7c0.3-1.5,2.4-2.4,4.1-1.7c1.8,0.7,3.1,0,3.1-2c0.1-3.3,0.6-6.6,0.2-9.9c-0.3-2.5-0.2-5.5-3.1-7.2
	c-0.5-0.3-0.7-1.3-0.8-2c-0.3-2.4-0.4-4.7-0.8-7.1c-0.3-2.5,1.8-4.4,4.2-3.6c1,0.4,1.9,1.2,2.9,1.7c1.4,0.7,2.7,1.5,4.2,1.9
	c1.3,0.3,1.5-0.8,1.4-1.7c-0.1-1.5-0.7-2.9-0.6-4.4c0.2-2.6,2.2-4.3,4.9-4.3c2.8,0,5.7-0.2,8.5,0c3,0.3,5.6-1,8.3-1.5
	c1.6-0.3,3.3-0.2,4.9,0.1c1.3,0.3,2.2,0.2,3.2-0.7c2.7-2.4,3.2-5.6,3.5-8.9c0.1-0.6,0-1.2,0.1-1.8c1.1-3.9,1-7.9,1.1-11.9
	c0.1-2.7,1.3-4.8,2.6-7c0.3-0.5,0.5-1,0.8-1.6C464.1,33,469.7,33,475.2,33z"/>
<path class="st0" d="M86.3,33c-0.8,0.9-1.5,1.8-2.4,2.6c-2.4,1.9-4.9,3.7-7.4,5.6C76.3,41.4,76,41.7,76,42c-0.2,1.7-1,3-2.3,4.1
	c-0.6,0.5-0.5,1.8-0.7,2.7c-0.3,2.3-0.7,4.6-0.9,6.9c-0.1,1.2,0.2,2.5,0.2,3.7c0,4.2,0.1,8.4,0,12.6c0,1.6,0.7,2.1,2,2
	c1.9-0.1,3.7,0.2,5.3,1.3c0.7,0.5,1.4,1.5,1.6,2.3c0.5,2.5-0.1,4.9-1.2,7.2c-0.1,0.2-0.2,0.4-0.2,0.7c0,0.1,0,0.2,0.1,0.6
	c1.9-0.2,3.8,0.3,5.8-0.9c1.7-1.1,4.1-1.3,6.2-1.5c2-0.2,4.1,0,6.1-0.1c1.5-0.1,2.7,0.1,3.7,1.3c0.3,0.4,1.2,0.3,1.9,0.3
	c1.2,0,2.6-0.4,3.5,0.1c1.1,0.7,1,2.1,0.2,3.4c-0.5,0.8,0.4,2.3,1.4,2.5c1.6,0.4,3.1,0.7,4.6,1.2c0.5,0.2,1,1.1,1,1.7
	c0,0.5-0.6,1.2-1.1,1.4c-0.7,0.2-1.5,0.1-2.3,0c-1.4-0.2-2.7-0.7-4.1-0.9c-1.8-0.3-2.8-2.3-2-4.2c0.7-1.6,0-2.9-1.8-3
	c-2.1-0.2-4.3-0.1-6.5-0.4c-3.1-0.4-5.9,0.5-8.8,1.2c-0.6,0.1-1.2,0.8-1.5,1.4c-0.7,1.1-1.6,1.4-2.9,1.5c-2.3,0.1-4.5,0.4-6.7,0.7
	c-2.4,0.4-4.4-1.6-3.7-3.9c0.3-1.1,1.1-2,1.6-3c0.7-1.4,1.5-2.8,2.1-4.3c0.1-0.3-0.7-1.3-1.1-1.3c-0.8-0.1-1.6,0.1-2.4,0.4
	c-3.1,1.2-6.8-1.2-6.8-4.6c0-2.9-0.2-5.9,0.1-8.8c0.3-2.8-0.7-5.3-1.4-7.8c-0.6-1.9-0.5-3.7,0.1-5.4c0.4-1.2,0.2-2.1-0.7-3
	c-2.4-2.7-5.6-3.2-8.9-3.6c-0.6-0.1-1.2-0.1-1.8-0.1c-4-0.4-7.9-0.8-11.9-1.3c-1.5-0.2-3-0.5-4.3-1c-2.5-1.1-4.9-2.2-7.2-3.7
	c-2.5-1.6-4.6-3.6-7-5.3c-0.9-0.7-2.1-1-3.1-1.5c0.5-0.1,1-0.3,1.4-0.3c9.6,0,19.3,0,28.9,0c2.3,1.2,4.6,2.4,7.4,2.3
	c1.2,0,2.5,0.3,3.6,0.8c1.9,0.9,3.6,2.1,4.9,2.9c1.9-2.1,3.7-4.1,5.5-6C76.4,33,81.3,33,86.3,33z"/>
<path class="st0" d="M19.7,389.4c1.5,0.6,2.9,1.6,4.4,1.6c2.6-0.1,4.9,1.1,7.3,1.5c3.6,0.6,7.3,0.7,11.2,1.1
	c0.1-1.9-0.1-3.4,0.3-4.7c0.8-2.9,0.6-5.9,0.9-8.9c0.3-2.1,1.6-4.3,3-6c3.7-4.7,6.6-10.1,11.5-13.8c2.8-2.1,5.8-4.1,8.9-5.7
	c1.1-0.6,2.9-0.2,4.3,0.2c1.4,0.4,2.7,1.2,4,1.9c2.5,1.4,2.4,4.4,0,5.8c-2.2,1.3-4.5,2.4-6.7,3.7c-3.7,2.1-6.3,5.3-8.8,8.6
	c-3,4.1-6.3,8-9.5,12c-1.7,2.1-1.6,4.5-0.9,6.8c1,3.4-0.5,6-4.1,6.1c-4,0.1-8.1,0.2-12.1,0c-1.8-0.1-3.6-0.8-5.4-1.2
	c-1.4-0.3-2.9-0.6-4.3-0.8c-1.3-0.2-2.6-0.3-3.9-0.5C19.7,394.4,19.7,391.9,19.7,389.4z"/>
<path class="st0" d="M479.9,110.4c-3.8-0.8-7.6-1.8-11.4-2.4c-3.6-0.6-7.3-0.7-11.1-1c-0.4,4.2-1.1,7.9-1,11.6
	c0.1,3.3-1.5,5.7-3.3,8c-3.7,4.7-6.6,10.1-11.5,13.8c-2.8,2.1-5.8,4.1-8.9,5.7c-1.1,0.6-2.9,0.1-4.3-0.2c-1.4-0.4-2.7-1.2-4-1.9
	c-2.5-1.4-2.4-4.4,0.1-5.8c2.2-1.3,4.5-2.4,6.7-3.7c3.7-2.1,6.3-5.3,8.8-8.6c3-4.1,6.3-8,9.5-12c1.7-2.1,1.7-4.5,1-6.8
	c-1-3.4,0.5-6,4.1-6.1c4.1-0.1,8.2-0.2,12.2,0.1c2,0.1,4,1.1,6.1,1.6c0.9,0.2,1.9,0.3,2.8,0.5c1.4,0.2,2.8,0.3,4.2,0.5
	C479.9,105.8,479.9,108.1,479.9,110.4z"/>
<path class="st0" d="M391.6,470.8c2-4.2,1.1-8.6,1.3-13.1c-1.1-0.1-2.1-0.1-3.1-0.2c-0.8,0-1.7,0.1-2.3-0.2
	c-2.4-1.1-4.8-0.7-7.3-0.7c-2.7,0.1-4.7-1.7-6.5-3.1c-4.8-3.8-10.3-6.8-14.1-11.7c-2.1-2.7-3.9-5.7-5.5-8.8c-0.5-1-0.3-2.6,0-3.8
	c0.5-1.5,1.3-3,2.2-4.4c1.5-2.5,4.3-2.5,5.8,0c1.4,2.4,2.3,5.1,4,7.2c2.1,2.7,4.6,5.2,7.2,7.4c4.1,3.5,8.6,6.7,12.8,10.2
	c1.6,1.3,5,2.1,7.1,1.2c3.1-1.3,6,0.2,6,3.6c0,5.4,0.9,10.9-0.7,16.3C396.2,470.8,393.9,470.8,391.6,470.8z"/>
<path class="st0" d="M19.7,100.3c1.6-0.7,3.1-1.4,4.7-2c3.4-1.3,6.9-1.9,10.6-0.9c2.2,0.6,4.8,0,7.1,0.3c1.5,0.2,3.1,0.8,4.3,1.7
	c1.7,1.3,1.4,3.7-0.3,5.8c-2.1,2.5-4.6,4.8-6.3,7.5c-1,1.6-1.6,3.5-2.7,5.2c-0.8,1.2-0.8,2.8-1.2,4.2c3,0.5,5.9,0.5,8.6,1.4
	c3.5,1.2,6.9,2.7,9.9,4.8c2.4,1.6,4,4.2,6.1,6.1c1.1,0.9,2.6,1.4,3.9,2c0.2,0.1,0.6,0,0.7,0.2c1.9,2.6,5,2.3,7.6,3.2
	c0.3,0.1,0.7,0.6,0.7,0.9c0,0.3-0.4,0.6-0.8,0.8c-0.4,0.3-1,0.5-1.5,0.6c-2.9,0.4-5.8,1.4-8.8,0.6c-2.9-0.8-5.4-2.4-7.4-4.8
	c-1.3-1.5-3.4-2.3-4.6-3.9c-1.2-1.6-2.6-2.5-4.2-3c-2.1-0.7-4.3-0.9-6.4-1.4c-2.1-0.4-4.3-0.8-6.4-1.4c-2.3-0.6-3-3.2-1.6-5.1
	c0.4-0.6,0.6-1.5,0.9-2.2c0.8-2.2,0.7-4.7,2.6-6.4c0.2-0.2,0.5-0.4,0.5-0.5c0.1-3.6,3.7-5.2,4.7-8.4c-4-0.5-7.8,0.4-11.4,2.5
	c-3,1.7-6.2,3-9.4,4.5C19.7,108.5,19.7,104.4,19.7,100.3z"/>
<path class="st0" d="M479.9,400.2c-1,0.5-2.1,0.9-3.1,1.5c-3,1.8-6.5,2.4-9.7,1.9c-3.4-0.6-6.7-0.4-10.1-0.7c-1.3-0.1-2.7-1-3.7-1.9
	c-1.6-1.5-1.2-3.8,0.7-5.9c2.1-2.4,4.2-4.9,6.2-7.4c0.2-0.3,0.2-0.8,0.4-1.1c0.4-0.8,0.7-1.7,1.1-2.5c0.3-0.8,0.7-1.5,1.1-2.3
	c0.4-1,0.8-2.1,1.3-3.3c-3-0.5-5.8-0.8-8.6-1.3c-1.6-0.3-3.1-0.9-4.5-1.7c-2.5-1.4-5.4-2-7.1-4.9c-1.1-1.9-3.2-3.3-5-4.8
	c-0.6-0.5-1.5-0.5-2.1-0.9c-1.5-0.9-2.8-1.9-4.3-2.8c-0.6-0.3-1.3-0.4-2-0.5c-1.2-0.3-2.4-0.5-3.6-0.9c-0.2-0.1-0.3-1.3,0-1.5
	c0.7-0.5,1.5-0.8,2.3-0.9c2.1-0.3,4.3-0.3,6.5-0.5c2.9-0.3,5.2,1.4,7.3,3c2.1,1.6,4.1,3.4,6,5.3c1.1,1.2,2.1,2.6,3.7,3.1
	c2,0.6,4.1,1.2,6.1,1.6c2.5,0.6,5.2,0.9,7.7,1.5c2.3,0.6,2.9,3.2,1.6,5.1c-0.4,0.6-0.6,1.5-0.9,2.2c-0.8,2.2-0.7,4.7-2.6,6.4
	c-0.2,0.2-0.5,0.4-0.5,0.5c-0.1,3.6-3.7,5.2-4.9,8.8c3.1-0.5,6.2-0.5,8.9-1.5c2.9-1,5.5-2.9,8.3-4.3c1.1-0.6,2.3-1.1,3.4-1.6
	C479.9,392,479.9,396.1,479.9,400.2z"/>
<path class="st0" d="M107.3,33c0,3.2,0,6.5,0,9.9c0.8,0,1.8,0.1,2.7,0.2c0.8,0,1.8-0.1,2.5,0.2c2.4,1.1,4.8,0.7,7.3,0.6
	c2.7-0.1,4.6,1.7,6.5,3.1c4.9,3.8,10.3,6.9,14.2,11.8c2.1,2.7,3.8,5.6,5.4,8.6c0.5,1.1,0.3,2.7-0.1,4c-0.4,1.4-1.2,2.6-1.9,3.9
	c-1.7,3-4.5,3-6.3-0.1c-1.2-2.1-2.2-4.2-3.4-6.3c-2.1-3.8-5.4-6.4-8.9-9c-4-2.9-7.8-6-11.5-9.2c-2.1-1.8-4.6-1.9-6.9-1.1
	c-3.4,1-6-0.2-6.1-3.7c-0.2-4.3,0-8.6,0-12.9C102.9,33,105.1,33,107.3,33z"/>
<path class="st0" d="M96.8,470.8c0.1-1.9,0.3-3.8,0.4-5.6c0.1-2.3,0-4.7,0.3-7c0.2-1.5,0.7-3.1,1.6-4.3c1.3-1.9,3.9-1.6,6,0.2
	c2.5,2.2,5,4.3,7.5,6.4c0.2,0.2,0.5,0.4,0.8,0.4c1.6-0.2,2.6,0.7,3.5,1.7c0.2,0.2,0.5,0.3,0.8,0.4c1,0.4,2,0.8,3.1,1.1
	c0.4,0.1,0.8,0,1.2,0c0.5-2.9,0.8-5.8,1.4-8.6c0.3-1.3,0.8-2.6,1.5-3.8c1.4-2.6,2-5.7,5-7.4c2-1.2,3.4-3.3,4.9-5.1
	c0.4-0.5,0.4-1.3,0.7-1.8c0.9-1.5,2-2.9,2.8-4.5c0.3-0.6,0.4-1.3,0.5-2c0.3-1.2,0.5-2.4,0.9-3.6c0.1-0.2,0.6-0.5,0.8-0.5
	c0.3,0,0.7,0.3,0.8,0.6c0.3,0.5,0.5,1.1,0.6,1.6c0.4,2.9,1.4,5.8,0.6,8.8c-0.8,2.9-2.3,5.4-4.8,7.4c-1.4,1.1-2.1,3.1-3.5,4.2
	c-1.3,1.1-2.5,2.1-3,3.6c-0.7,2-1.2,4.1-1.7,6.1c-0.6,2.5-0.9,5.2-1.5,7.7c-0.6,2.3-3.2,2.9-5.1,1.6c-0.6-0.4-1.5-0.6-2.2-0.9
	c-2.2-0.8-4.7-0.7-6.4-2.6c-0.2-0.2-0.4-0.5-0.5-0.5c-3.6-0.1-5.2-3.8-8.4-4.7c-0.4,3.8,0.1,7.5,2.3,10.9
	C104,470.8,100.4,470.8,96.8,470.8z"/>
<path class="st0" d="M403.6,33c-1.3,3.1-0.6,6.4-1,9.6c-0.2,1.5-0.9,3.1-1.8,4.3c-1.4,1.7-3.7,1.3-5.8-0.5c-2.5-2.2-5-4.3-7.5-6.4
	c-0.2-0.2-0.5-0.4-0.8-0.4c-1.6,0.2-2.6-0.7-3.5-1.8c-0.1-0.2-0.4-0.3-0.6-0.4c-1.1-0.4-2.3-0.8-3.4-1.1c-0.3-0.1-0.7,0-1,0.1
	c-0.4,2.8-0.8,5.7-1.3,8.4c-0.3,1.4-0.9,2.7-1.5,4c-1.4,2.6-2,5.7-5,7.4c-2,1.2-3.4,3.3-4.9,5.1c-0.4,0.5-0.4,1.4-0.8,2
	c-0.9,1.5-1.9,2.8-2.8,4.3c-0.3,0.5-0.4,1.2-0.5,1.8c-0.3,1.3-0.5,2.5-0.9,3.8c-0.1,0.3-0.5,0.5-0.8,0.5c-0.3,0-0.7-0.3-0.8-0.6
	c-0.3-1.2-0.7-2.5-0.8-3.8c-0.2-1.5-0.4-3.1-0.4-4.7c-0.1-4.1,2.1-7,5.2-9.5c1-0.8,1.6-2.2,2.4-3.3c1.1-1.5,3.1-2,3.6-4
	c0.6-2.2,1.3-4.4,1.8-6.6c0.6-2.7,1.1-5.5,1.6-8.2c2.9,0,5.8,0,8.7,0c1,0.4,2,0.5,2.8,1.1c1.7,1.2,3.7,1.9,5.5,2.8
	c1.9,1,3.6,2.6,5.3,4c0.2-0.1,0.4-0.1,0.6-0.2c-0.4-2.6-0.8-5.2-1.2-7.8C397.1,33,400.3,33,403.6,33z"/>
<path class="st0" d="M19.7,194c6.6-1.1,13.1-2.5,19.8-1.4c2.3,0.4,4.7,1.1,6.9,1.8c1.9,0.5,3,1.9,3.6,3.7c0.4,1.3,0.9,2.6,1.2,3.9
	c0.7,2.8-1.3,4.8-4.1,4.1c-2.5-0.6-4.9-1.5-7.4-2.2c-4-1.1-8.1-0.8-12.1-0.1c-2.7,0.4-5.4,0.7-8,1C19.7,201.2,19.7,197.6,19.7,194z"
	/>
<path class="st0" d="M479.9,306.5c-7.3,1.3-14.5,2.8-21.9,0.9c-0.9-0.2-1.8-0.2-2.7-0.5c-4.2-1.3-6.9-5-6.9-9.5
	c0-2.1,1.8-3.6,3.9-3.2c1.1,0.2,2.2,0.5,3.3,1c5.3,2.2,10.7,2.4,16.2,1.5c2.7-0.4,5.4-0.7,8-1.1
	C479.9,299.3,479.9,302.9,479.9,306.5z"/>
<path class="st0" d="M191.9,470.8c0.1-3.4,0.1-6.7,0.5-10.1c0.3-2.3,1-4.5,1.7-6.8c0.6-2,1.9-3.3,3.9-3.8c1.3-0.4,2.5-0.9,3.8-1.2
	c2.8-0.7,4.8,1.3,4.1,4.1c-0.6,2.4-1.7,4.8-2.1,7.2c-0.5,3.5-0.5,7-0.7,10.6C199.4,470.8,195.7,470.8,191.9,470.8z"/>
<path class="st0" d="M308.1,33c-0.4,3.6-0.6,7.2-1.2,10.7c-0.5,3.2-1.8,6-5.4,6.9c-1.1,0.3-2.2,0.7-3.3,1c-2.8,0.7-4.8-1.3-4.1-4.1
	c0.3-1.2,0.7-2.3,1.1-3.4c1.4-3.6,2-7.3,1.7-11.1C300.6,33,304.3,33,308.1,33z"/>
<path class="st0" d="M19.7,303.6c1.7-0.5,3.4-1.3,5.1-1.4c3-0.2,6,0.1,9-0.1c1.5-0.1,2.9-0.8,4.4-1.3c0.2-0.1,0.4-0.4,0.6-0.3
	c3.2,0.5,5.1-2,7.6-3.1c0.3-0.1,0.8,0,1.1,0.2c0.2,0.1,0.3,0.7,0.2,1c-0.6,1.1-1.3,2.2-2,3.3c-1,1.3-2.1,2.6-3.2,3.9
	c-1.9,2.2-4.6,2.6-7.3,3c-2.5,0.4-5.1,0.4-7.6,0.6c-1.1,0.1-2.3-0.4-3.3-0.1c-1.6,0.5-3.1,1.4-4.7,2.1
	C19.7,308.7,19.7,306.2,19.7,303.6z"/>
<path class="st0" d="M479.9,196.9c-2.5,0.7-4.8,2-7.8,1.2c-2.1-0.6-4.5,0-6.7,0.2c-0.7,0.1-1.4,0.6-2.2,0.8c-1.7,0.4-3.3,0.6-5,1.1
	c-0.6,0.2-1.2,0.7-1.8,1.1c-1.1,0.6-2.1,1.3-3.2,1.9c-0.2,0.1-0.8,0-0.9-0.3c-0.2-0.3-0.2-0.8-0.1-1.1c0.1-0.6,0.4-1.1,0.7-1.6
	c1.9-2.6,3.5-5.5,6.4-7c1.6-0.8,3.5-1.1,5.3-1.4c2.5-0.3,5-0.4,7.5-0.5c1.3-0.1,2.7,0.2,4-0.1c1.3-0.3,2.5-1,3.7-1.6
	C479.9,192.1,479.9,194.5,479.9,196.9z"/>
<path class="st0" d="M301.9,470.8c0-0.9-0.1-1.8-0.1-2.7c0.1-1.7,0-3.2-0.7-4.9c-0.6-1.5-0.7-3.2-1.1-4.8c-0.1-0.5-0.5-0.9-0.7-1.4
	c-0.7-1.1-1.5-2.2-2.2-3.4c-0.1-0.2-0.1-0.8,0.1-1c0.3-0.2,0.8-0.4,1.1-0.3c0.7,0.2,1.4,0.4,1.9,0.9c2.4,1.9,5.3,3.4,6.7,6.2
	c1.1,2.4,1.9,5,1.5,7.8c-0.2,1.1,0.3,2.3,0.4,3.5C306.5,470.8,304.2,470.8,301.9,470.8z"/>
<path class="st0" d="M19.7,244.7c1.8-1.7,3.6-3.6,5.5-5.2c0.7-0.6,1.6-1.1,2.5-1.1c1.2,0,1.6-0.5,2.1-1.4c0.5-0.9,1.5-2.1,2.4-2.2
	c1.1-0.2,2.1,0.7,2.5,2.1c0.3,1.3,1.8,1.5,3,0.8c1.3-0.8,2.6-1.6,4-2.2c0.5-0.2,1.4,0,1.7,0.4c0.4,0.5,0.4,1.3,0.3,1.9
	c-0.1,0.5-0.6,0.9-1,1.2c-1.5,1-3,2-4.6,3c-1.2,0.7-3.3-0.3-3.9-1.8c-0.7-1.8-2.1-2.1-3.5-0.9c-1.8,1.6-3.5,3.3-5.3,4.8
	c-2.3,1.8-3.3,4.3-4.9,6.6c-0.3,0.5,0,1.4-0.1,2.1c-0.1,0.8-0.4,1.6-0.6,2.4C19.7,251.6,19.7,248.1,19.7,244.7z"/>
<path class="st0" d="M479.9,256.2c-1.6,1.6-3.2,3.2-4.9,4.7c-0.8,0.6-1.9,1.2-2.8,1.2c-1.2,0-1.4,0.6-2,1.4
	c-0.6,0.9-1.5,2.1-2.4,2.3c-1.1,0.2-2.1-0.7-2.5-2.1c-0.3-1.3-1.8-1.6-3-0.9c-1.3,0.8-2.6,1.6-4,2.2c-0.5,0.2-1.4,0-1.7-0.4
	c-0.4-0.4-0.4-1.3-0.4-1.9c0-0.3,0.5-0.7,0.8-0.9c1.7-1.1,3.3-2.3,5-3.3c1.2-0.7,3.2,0.4,3.8,1.9c0.7,1.8,2.1,2.2,3.5,0.9
	c2.1-1.8,4.1-3.7,6.1-5.6c1.1-1.2,2-2.7,2.9-4c0.5-0.7,1-1.3,1.6-2C479.9,251.9,479.9,254.1,479.9,256.2z"/>
<path class="st0" d="M198.1,33c0.2,1.3,0.5,2.6,0.7,3.9c0.3,1.7,0.7,3.3,1.1,5c0.1,0.5,0.5,1.1,0.8,1.6c0.7,1.1,1.5,2.2,2.2,3.4
	c0.1,0.2,0.1,0.8-0.1,0.9c-0.3,0.2-0.8,0.4-1.1,0.3c-0.7-0.2-1.4-0.5-1.9-0.9c-2.4-1.8-5.3-3.3-6.5-6.1c-1.1-2.5-1.1-5.4-1.6-8.1
	C193.7,33,195.9,33,198.1,33z"/>
<path class="st0" d="M237.2,470.8c-0.5-0.2-1.1-0.3-1.4-0.7c-0.6-0.6-1.4-1.6-1.3-2.1c0.2-0.9,1.1-1.8,2-2.2
	c1.4-0.7,1.8-1.9,0.9-3.2c-0.8-1.2-1.6-2.5-2.1-3.9c-0.2-0.5,0.1-1.5,0.5-1.9c0.4-0.4,1.4-0.4,1.9-0.1c0.7,0.4,1.1,1.2,1.6,1.9
	c0.7,1,1.1,2.1,1.9,3c1.3,1.6,1,3.6-1,4.6c-2.2,1.1-2.4,2.2-0.6,4c0.2,0.2,0.4,0.4,0.6,0.7C239.1,470.8,238.1,470.8,237.2,470.8z"/>
<path class="st0" d="M265.4,33c-0.6,0.6-1.1,1.4-1.9,1.8c-1.3,0.7-1.7,1.9-0.9,3.1c0.8,1.3,1.6,2.6,2.2,4c0.2,0.5-0.1,1.4-0.4,1.7
	c-0.5,0.4-1.3,0.4-1.9,0.3c-0.5-0.1-1-0.7-1.3-1.2c-1-1.4-1.8-2.9-2.8-4.3c-0.9-1.4,0.1-3.4,1.9-4.2c0.6-0.2,1-0.8,1.4-1.3
	C263,33,264.2,33,265.4,33z"/>
<path class="st0" d="M280.9,72.6c1.3-4.9,4.4-8.6,8.1-12c0.6-0.6,1.3-1.1,2.1-1.4c0.4-0.2,1,0.1,1.6,0.2c-0.2,0.5-0.3,1.1-0.7,1.4
	c-4.3,3-7.5,6.9-9.1,12c-0.1,0.5,0,1.4,0.3,1.6c4.7,2.7,8.2,6.7,11.4,10.9c0.1,0.2,0.2,0.4,0.6,1.1c1.6-4.2,3.4-7.7,4.2-11.7
	c0.8-4,2.2-8,3.9-11.8c1.3-3,3.2-5.8,5.1-8.5c2.1-3,6.1-3.7,9.2-1.9c3,1.8,4.2,5.5,2.9,8.8c-2,5.1-3.8,10.3-5.8,15.4
	c-1.1,2.7-2.4,5.3-3.6,8c-0.2,0.4-0.2,0.8-0.5,1.7c0.9-0.7,1.2-1.1,1.7-1.3c1.2-0.5,2.5-0.9,3.8-1.3c1.4-0.4,3.1-0.5,4.1-1.4
	c1.7-1.5,3.5-0.8,5.3-0.9c0.2,0,0.8,0.6,0.7,0.8c-0.1,0.4-0.6,1-0.8,0.9c-3.1-0.8-5,2-7.7,2.4c-1.2,0.2-2.3,1.5-3.5,2.2
	c-0.7,0.3-1.6,0.5-2.3,0.3c-1.2-0.3-2.1-0.1-2.6,1.1c-1.6,3.6-3.3,7.1-4.8,10.6c-1,2.2-2.5,3.6-4.7,4.4c-0.6,0.2-1.3,0.8-1.6,1.4
	c-3.2,6.9-11.2,8.8-17,4c-1.2-1-2.3-2.3-3.6-3.3c-0.5-0.4-1.3-0.6-2-0.7c-0.6-0.1-1.4,0.2-2-0.1c-4.5-1.7-9.2-2-13.8-2.8
	c-1.6-0.3-3.1-1.2-4.8-1.8c-0.3,0.3-0.5,0.7-0.7,1c-2.8,5.3-7.5,8.7-12,12.3c-0.9,0.7-1.9,1.3-2.9,1.8c-2.4,1.2-2.8,2.5-1.2,5.3
	c1.9-1.9,3.8-3.9,5.7-5.6c2.3-2,4.6-4,7.1-5.8c1.8-1.3,3.9-1.5,6-0.7c0.8,0.3,1.4,0.3,2.3-0.2c0.7-0.4,1.7-0.2,2.5-0.2
	c-0.1,0.8,0.1,1.9-0.3,2.4c-0.8,0.9-0.4,1.6-0.1,2.4c0.6,2.2,0.5,4.4-0.9,6.2c-2.2,2.8-4.5,5.4-6.9,8.1c-1.7,1.9-3.6,3.7-5.5,5.5
	c1.5,2.4,3.9,3.7,6.3,4.8c3.2,1.4,6.5,2.7,9.9,4c0.6,0.2,1.7,0.2,2.2-0.2c1.5-1.1,2.8-2.4,4.3-3.6c0.7-0.6,1.6-1.1,2.4-1.5
	c2.5-1.1,4.3-3.1,6-5.1c3-3.6,5.9-7.3,9.2-10.6c2.5-2.5,6-3.3,9.4-3.3c3,0,4.8,2.1,6.2,4.6c0.3,0.5,1,1,1.5,1.1
	c7,1.3,12.2,4.9,15.5,11.2c0.1,0.3,0.3,0.5,0.5,0.7c0.1,0.1,0.3,0.1,0.5,0.2c0.4-1.2,0.8-2.3,1-3.5c0.1-0.4-0.3-0.9-0.6-1.2
	c-1.8-1.8-3.5-3.7-6-4.5c-0.5-0.2-1.1-0.5-1.3-0.9c-1.6-3-5.4-3.3-7.4-5.8c-0.5-0.6-1.4-1.5-1.3-2c0.4-1.2,1.5-1.7,2.8-1.1
	c0.5,0.3,1,0.6,1.5,1c1,0.7,2,1.5,3.1,2.1c1.4,0.8,3,1.3,3.6,3c0.2,0.4,0.9,0.7,1.5,0.9c1.8,0.5,2.9,1.6,3.1,3.5
	c0,0.4,0.2,0.9,0.5,1.1c3.3,2.5,3.3,6.1,3.1,9.7c0,0.7-0.7,1.5-1.1,2.1c-0.4,0.6-1,1.2-1.5,1.8c0.1,0.2,0.2,0.3,0.3,0.5
	c1.7-0.5,3.4-1.1,4.7-1.5c-0.7-3.2-1.7-6.2-2-9.2c-0.4-4.9,1.4-9.1,4.9-12.6c2.3-2.3,4.7-4.7,7.4-6.6c5-3.7,10.6-4.8,16.6-3.3
	c2.3,0.5,4.6,1,6.8,1.8c3.6,1.3,6.3,3.9,8.8,7.3c0.1-2.6,0-4.8,0.4-6.9c0.9-5.5,1.9-11,3.1-16.4c1.3-5.9,6.7-9.8,12.6-9.5
	c6,0.4,10.7,4.9,11.5,11.1c0.2,1.7,1,3.3,1.3,5c0.6,3,1,6,1.4,9c0.6,5.1,0.6,10-2.2,14.7c-0.9,1.6-1.2,3.8-1.3,5.7
	c-0.2,4.4-0.1,8.9-0.1,13.4c0,0.6,0.1,1.2,0.2,1.6c2.6-0.8,5.1-1.8,7.7-2.1c2.9-0.3,5.9-0.1,8.8,0.1c0.5,0,0.9,0.8,1.4,1.3
	c-0.6,0.2-1.3,0.5-1.9,0.4c-5.1-0.8-10.1-0.2-14.7,2.3c-0.4,0.2-0.8,1.1-0.7,1.6c1.4,5.1,1,10.1,0.4,15.2c0,0.3,0,0.6,0,1.3
	c2.3-0.9,4.4-1.7,6.4-2.7c3.9-2,7.6-4.2,11.5-6.2c3.1-1.6,6.3-3,9.8-3.3c0.9-0.1,1.9-0.4,2.8-0.6c3.9-1.1,7.8,1.1,8.9,4.8
	c1.1,3.9-1.3,7.6-5.2,8.8c-2.7,0.9-5.3,2.1-7.8,3.5c-4.5,2.4-9.3,4.2-14.1,5.9c-0.5,0.2-0.9,0.4-1.4,0.9c2.9-0.2,4.7,1.5,6.6,3.1
	c0.6,0.5,1.5,1,2.3,0.9c2.2-0.1,3.2,1.5,4.4,2.7c0.3,0.3,0.1,1,0.1,1.6c-0.5-0.1-1.2,0-1.4-0.3c-1.2-1.4-2.7-2-4.4-2.4
	c-2.4-0.5-4.7-1.3-6.9-2.1c-0.5-0.2-1.1-0.8-1.3-1.3c-0.6-1.1-1.3-1.6-2.6-1.1c-3.6,1.4-7.3,2.7-10.9,4.1c-2.1,0.8-4.1,1-6.1-0.1
	c-1-0.5-1.7-0.6-2.8-0.2c-6.9,2.6-14-2.1-14.5-9.4c-0.1-1.7,0-3.4-0.2-5c-0.1-0.6-0.6-1.1-0.9-1.6c-0.8-1.2-1.7-2.4-2.5-3.7
	c-0.2-0.3-0.2-0.7-0.4-1c-1.4-1.9-2.9-3.8-4.3-5.8c-1.6-2.3-3-4.7-4.6-7.4c-1.1,0.2-2.6,0.6-4.1,0.8c-2.5,0.2-5.1,0.5-7.5,0.2
	c-3.8-0.4-7.8-0.1-11.3-2c-0.2-0.1-0.8,0-1,0.2c-0.8,0.9-1.5,1.9-2.5,3.3c4.1,0,7.5-0.1,11,0c2.4,0.1,4.9,0.5,7.2,1.1
	c2.4,0.6,3.8,2.4,4.7,4.8c0.2,0,0.6,0,0.8,0.1c0.8,0.5,1.6,1.1,2.4,1.6c-0.8,0.6-1.6,1.1-2.3,1.7c-0.4,0.3-1,0.6-1.2,1
	c-1.3,2.8-3.5,4.1-6.6,4.3c-5.7,0.3-11.4,0.7-17.2,1.1c-0.6,2.4,0.2,4.9,1.1,7.4c1.3,3.4,2.8,6.8,4.2,10.1c0.2,0.4,0.5,1,0.9,1
	c2,0.3,4,0.5,6,0.7c1.1,0.1,2.2,0.2,3.2,0.6c2.6,1,5.3,0.9,8,0.6c4.7-0.4,9.3-1,14-1c3.5,0,6.5,1.9,8.9,4.2c2.5,2.5,2.3,7.1-0.1,9.8
	c-0.2,0.3-0.5,0.5-0.6,0.7c0.9,2.1,1.8,4.1,2.8,6.4c0-2,0-3.9,0-6.2c2.3,3.2,3.4,6.3,3.4,9.5c0,3.2-0.5,6.4-0.8,9.6
	c0.9-0.5,1.9-0.9,2.8-1.5c0.4-0.3,0.7-1,0.7-1.5c-0.1-2.5,0.1-5.1-1.1-7.5c-0.2-0.3-0.3-0.9-0.2-1.2c0.9-3.4-1.4-6.4-1.2-9.6
	c0-0.8,0.2-1.9,0.7-2.2c0.9-0.5,2-0.1,2.5,1.1c0.2,0.6,0.3,1.3,0.5,1.9c0.2,1.3,0.4,2.6,0.7,3.9c0.4,1.5,1,2.9,0.4,4.5
	c-0.2,0.5,0.2,1.3,0.5,1.8c0.8,1.6,0.8,3.1-0.4,4.5c-0.2,0.2-0.3,0.4-0.4,0.6c-0.4,2.2-0.7,4.5-1,6.4c2.6-3.1,6.2-5.6,10.6-6.1
	c7.2-0.8,14.6-1.1,20.7,3.5c7.2,5.4,11.8,12.5,10.8,22.1c0,0.4,0,0.7,0,1.3c0.5-0.4,0.8-0.7,1.2-0.9c2.8-2.2,5.6-4.4,8.4-6.5
	c2.6-1.9,5.4-3.7,8-5.7c4.6-3.5,11-3.5,15.5,0.3c4.4,3.6,5.6,10,2.9,15.1c-1.1,2.1-2.3,4.3-3.7,6.2c-3.1,4.1-6.2,8.1-9.5,11.9
	c-1.2,1.4-2.9,2.8-4.6,3.3c-6,1.7-10,6-14.1,10.2c-1.7,1.7-3.5,3.2-5.2,5.1c5,1.6,8.8,4.6,12,8.2c0.6,0.7,1.2,1.4,1.5,2.2
	c0.2,0.5-0.1,1.1-0.2,1.7c-0.5-0.3-1.1-0.4-1.4-0.8c-3.3-4.6-7.5-7.9-12.7-9.3c-2,2.4-3.8,4.7-5.8,6.8c-2,2.1-4.2,3.9-6.5,6
	c3.9,1.5,7.5,3.2,11.7,4.1c5.5,1.2,11,2.8,15.6,6.2c1.1,0.8,2.3,1.5,3.5,2.2c3.2,1.9,4.5,5.9,2.8,9.3c-1.7,3.3-5.6,4.6-9.1,3.2
	c-4.3-1.8-8.7-3.3-13.1-5c-3.4-1.4-6.8-2.9-10.2-4.4c-0.4-0.2-0.9-0.3-1.5-0.3c2.1,1.9,2.4,4.3,2.5,6.9c0,0.8,0.5,1.9,1.1,2.4
	c1.7,1.6,0.9,3.5,1,5.3c0,0.3-0.6,0.6-0.9,0.9c-0.3-0.4-0.9-0.8-0.8-1.1c0.8-3-2.2-4.8-2.4-7.5c-0.1-1.2-1.5-2.1-2.1-3.3
	c-0.3-0.7-0.5-1.7-0.3-2.4c0.2-1.2,0.1-2-1.1-2.5c-3.5-1.6-7.1-3.3-10.6-4.8c-2.2-1-3.6-2.5-4.4-4.7c-0.2-0.6-0.7-1.4-1.3-1.6
	c-7-3.2-8.9-11.2-4-17.1c1-1.2,2.3-2.3,3.3-3.6c0.4-0.5,0.5-1.2,0.6-1.9c0.1-0.8-0.1-1.6,0.1-2.3c0.4-2.1,1-4.3,1.5-6.4
	c0.4-1.8,0.5-3.7,0.9-5.5c0.5-2.1,1.2-4.2,1.9-6.5c-0.2-0.2-0.5-0.5-0.9-0.7c-5.3-2.8-8.7-7.6-12.4-12.2c-0.7-0.8-1.2-1.8-1.7-2.8
	c-1.1-2.4-2.7-2.7-5.3-1c2.6,2.5,5.2,4.9,7.6,7.5c1.6,1.8,3.1,3.8,4.3,5.9c0.6,1,0.9,2.4,0.7,3.5c-0.3,1.9-0.7,3.6,0.2,5.4
	c0.6,1.2-0.4,1.8-1.4,1.2c-1.7-0.9-3.2-0.3-4.9-0.3c-1.6,0.1-3.5-0.2-4.7-1.1c-3-2.1-5.7-4.6-8.4-7c-1.9-1.7-3.6-3.6-5.3-5.4
	c-2.5,1.6-3.7,3.9-4.8,6.4c-1.4,3.2-2.6,6.5-4,9.7c-0.4,0.9-0.5,1.7,0.2,2.4c1.2,1.4,2.5,2.8,3.7,4.2c0.6,0.7,1.1,1.5,1.4,2.3
	c1.1,2.6,3.1,4.4,5.2,6.2c3.6,3,7.3,5.9,10.6,9.2c2.4,2.4,3.3,5.9,3.3,9.3c0,3-2,4.9-4.5,6.3c-0.5,0.3-1.1,1-1.2,1.6
	c-1.3,6.9-4.9,12.1-11.1,15.4c-0.4,0.2-0.8,0.6-1.3,0.9c1.4,0.4,2.4,0.8,3.5,1c0.4,0.1,1-0.3,1.4-0.6c1.8-1.8,3.7-3.5,4.5-6
	c0.2-0.5,0.6-1.2,1.1-1.4c1.7-0.7,2.2-2.3,3-3.6c1-1.6,2.1-3,3.3-4.5c0.3-0.3,1.1-0.6,1.3-0.4c0.5,0.4,1.2,1.1,1.2,1.6
	c0,0.8-0.5,1.7-0.9,2.4c-0.8,1.3-1.7,2.6-2.6,3.8c-0.8,1.1-1.8,2-2.6,3c-0.4,0.5-0.8,1.1-1,1.8c-0.6,1.6-1.6,2.6-3.3,2.9
	c-0.4,0.1-1,0.2-1.3,0.5c-2.6,3.3-6.2,3.3-9.8,3.1c-0.7,0-1.4-0.6-2-1c-0.7-0.5-1.3-1.1-1.9-1.6c-0.1,0.1-0.3,0.2-0.4,0.3
	c0.6,1.7,1.1,3.4,1.7,5.3c3.4-1.8,6.8-2.9,10.5-2.6c3.3,0.2,6.4,1.1,8.9,3.1c5.4,4.3,10.6,9,12,16c1.9,9.6,0,18.3-8.1,24.8
	c-0.1,0.1-0.2,0.2-0.5,0.6c1,0.1,1.8,0.1,2.6,0.2c2.8,0.3,5.6,0.7,8.4,1c1.3,0.2,2.6,0.2,3.9,0.5c3.4,0.7,6.9,1.3,10.1,2.5
	c5.1,1.8,8.3,7.5,7.5,12.7c-0.9,5.9-5.1,10-10.8,10.7c-2.1,0.3-4.2,1.1-6.3,1.5c-2.5,0.5-5.1,0.9-7.6,1.2c-4,0.5-8.2,1.2-11.7-0.7
	c-5.6-3-11.5-2.7-17.5-2.7c-2.2,0-4.4,0-6.8,0c0.7,1.8,1.6,3.3,1.8,4.9c0.5,3.4,0.6,6.9,0.8,10.4c0,0.2,0,0.5-0.1,0.7
	c-0.5,0.7-1.1,1.9-1.5,1.8c-1.4-0.3-0.5-1.3-0.4-2.2c0.6-5,0.2-9.8-2.4-14.3c-0.2-0.4-1.1-0.8-1.6-0.7c-5.1,1.4-10.1,1-15.2,0.4
	c-0.3,0-0.6,0-1.3,0c0.9,2.3,1.7,4.4,2.7,6.4c2,3.9,4.2,7.6,6.2,11.5c1.6,3.1,3,6.3,3.3,9.8c0.1,1.1,0.5,2.1,0.7,3.2
	c0.9,3.6-1.1,7.2-4.5,8.4c-3.4,1.2-7.3-0.6-8.7-3.9c-1.8-4.1-3.7-8.2-5.4-12.3c-1.5-3.6-2.9-7.3-4.4-11c-0.2-0.4-0.4-0.8-0.9-1.2
	c0.2,2.9-1.5,4.7-3.1,6.6c-0.5,0.6-1,1.5-0.9,2.3c0.1,2.2-1.5,3.2-2.7,4.4c-0.3,0.3-1,0.1-1.6,0.1c0.1-0.5,0-1.1,0.3-1.4
	c1.3-1.2,2-2.5,2.4-4.2c0.5-2.4,1.3-4.8,2.1-7.1c0.2-0.5,0.8-1.1,1.3-1.3c1.1-0.6,1.6-1.3,1.1-2.6c-1.4-3.6-2.7-7.3-4.1-10.9
	c-0.9-2.2-0.8-4.3,0.2-6.5c0.3-0.6,0.4-1.5,0.1-2.1c-2.7-7.3,1.7-14.3,9.6-14.9c1.6-0.1,3.2,0,4.8-0.2c0.5,0,1.1-0.4,1.5-0.8
	c0.6-0.4,0.9-1.1,1.5-1.5c2.3-1.5,4.7-2.9,7-4.3c0.3-0.2,0.6-0.2,0.8-0.4c2.7-1.9,5.5-3.8,8.5-5.9c-0.2-0.8-0.6-2.3-0.7-3.8
	c-0.2-2.6-0.5-5.2-0.3-7.7c0.4-3.8,0.1-7.7,2-11.3c0.1-0.3-0.1-1-0.4-1.2c-0.8-0.7-1.8-1.2-3.1-2.1c0,4,0.1,7.4,0,10.9
	c-0.1,2.4-0.5,4.9-1.1,7.3c-0.3,1.1-1.1,2.4-2.1,3.1c-1.5,1.1-3,2-3.7,4c-0.4,1.1-1.4,1.1-1.7,0c-0.6-1.9-2.3-2.7-3.6-4
	c-1.2-1.1-2.2-2.9-2.4-4.5c-0.5-4.4-0.6-8.8-0.8-13.3c-0.1-1.6,0-3.1,0-4.7c-2.9-0.6-5.5,0.2-8.1,1.2c-3.2,1.3-6.4,2.7-9.6,4
	c-0.4,0.2-1.1,0.5-1.2,0.9c-0.3,2-0.5,4-0.8,6c-0.2,1.4-0.4,2.7-0.8,4c-0.8,2.3-0.5,4.6-0.4,7c0.1,1.4,0,2.8,0.2,4.2
	c0.3,3.3,0.9,6.6,0.8,9.9c-0.1,3.5-1.9,6.5-4.2,8.9c-2.1,2.2-4.9,1.9-7.7,1.2c-0.6-0.1-1.5-0.1-1.9,0.2c-5.8,4.1-12.1,5.2-18.9,3.1
	c-0.3-0.1-0.7-0.2-1-0.2c-0.1,0-0.2,0.1-0.3,0.2c0.5,1,1,2.1,1.6,3c0.2,0.4,0.9,0.6,1.4,0.6c2.5,0,5.1,0.1,7.5-1.1
	c0.5-0.2,1.1-0.4,1.6-0.2c1.9,0.7,3.5-0.1,5.2-0.6c1.6-0.4,3.3-0.6,4.9-0.8c0.5,0,1.4,0.5,1.4,0.7c0,0.8-0.1,1.8-0.6,2.3
	c-0.5,0.5-1.5,0.6-2.3,0.8c-1.4,0.3-2.8,0.6-4.2,0.8c-1.4,0.2-2.8,0.2-4.2,0.4c-0.6,0.1-1.3,0.2-1.8,0.4c-1.7,0.8-3.2,0.9-4.7-0.4
	c-0.2-0.2-0.4-0.3-0.6-0.3c-2.2-0.3-4.3-0.7-6.1-0.9c8.4,7.7,8.1,17.8,4.3,27.4c-4.2,10.8-13.5,15.4-25.7,14.9c1.1,1,2,1.6,2.7,2.4
	c1.3,1.4,2.4,3,3.6,4.5c1.2,1.5,2.4,3,3.4,4.6c2.6,4.3,6.4,8.1,6.4,13.6c0,9.3-9.9,15.2-18,10.7c-2.1-1.1-4.1-2.2-6-3.6
	c-4.1-3-8.1-6.2-12-9.5c-1.5-1.3-2.9-3-3.4-4.8c-1.7-6-6.1-9.9-10.2-14.1c-1.7-1.7-3.2-3.4-4.9-5.3c-0.9,2.1-1.4,3.9-2.4,5.3
	c-2,2.6-4.2,5-6.4,7.5c-0.2,0.2-0.5,0.4-0.7,0.5c-0.8,0.3-1.8,1.5-2.5,0.2c-0.7-1.2,0.8-1.3,1.4-1.8c3.9-3.2,7.1-6.9,8.4-11.9
	c0.1-0.4,0-1-0.3-1.2c-5-2.8-8.6-7.1-12.3-11.7c-1.5,3.9-3.3,7.4-4.1,11.4c-0.8,4-2.2,8-3.9,11.8c-1.3,3-3.2,5.8-5.1,8.5
	c-2.1,3-6.1,3.7-9.2,1.9c-3.1-1.8-4.2-5.6-2.8-9c2-5.1,3.8-10.3,5.8-15.4c1-2.7,2.4-5.2,3.6-7.8c0.2-0.4,0.2-0.8,0.5-1.6
	c-0.8,0.6-1.1,0.9-1.6,1.2c-0.9,0.5-1.9,1.2-2.9,1.3c-2.3,0.2-4.3,0.6-6.3,2.1c-1,0.7-2.9,0.2-4.4,0.2c-0.2,0-0.6-0.7-0.5-0.9
	c0.2-0.3,0.7-0.8,1-0.7c3,0.8,4.8-2.1,7.5-2.4c1.2-0.1,2.2-1.5,3.3-2c0.7-0.4,1.7-0.6,2.4-0.4c1.2,0.2,2.1,0.1,2.6-1.1
	c1.6-3.6,3.3-7.1,4.8-10.6c0.9-2.1,2.4-3.5,4.6-4.3c0.7-0.3,1.5-0.8,1.7-1.4c3.2-6.9,11.2-8.8,17-3.9c1.2,1,2.3,2.3,3.6,3.3
	c0.5,0.4,1.3,0.6,2,0.7c0.6,0.1,1.2-0.1,1.8,0c2.7,0.6,5.4,1.3,8.1,2c0.3,0.1,0.6,0.3,0.9,0.3c3.4,0,6.7,0.7,9.7,2.5
	c0.9-1.3,1.7-2.4,2.5-3.5c0.6-0.9,1.1-1.9,1.9-2.6c3.8-3.6,7.5-7.3,12.4-9.5c1.4-0.7,1.6-2.5,0-5.1c-1.9,2.1-3.6,4.1-5.6,6
	c-2.2,2.1-4.6,4-7,5.8c-1.7,1.3-3.8,1.5-5.9,0.8c-0.9-0.3-1.5-0.6-2.4,0.1c-0.6,0.4-1.6,0.2-2.5,0.2c0.1-0.8-0.1-1.9,0.3-2.4
	c0.8-0.9,0.4-1.6,0.1-2.5c-0.7-2.2-0.5-4.4,1-6.2c2.2-2.8,4.5-5.4,6.9-8.1c1.7-1.9,3.6-3.7,5.5-5.6c-1.5-2.4-3.8-3.7-6.3-4.7
	c-3.2-1.4-6.5-2.7-9.8-4c-0.6-0.2-1.7-0.2-2.2,0.2c-1.5,1.1-2.8,2.4-4.3,3.6c-0.7,0.6-1.6,1.1-2.5,1.5c-2.5,1.1-4.3,3.1-6,5.1
	c-3,3.6-5.9,7.3-9.2,10.6c-2.5,2.5-6,3.3-9.4,3.3c-2.9,0-4.8-2-6.1-4.5c-0.4-0.9-0.9-1.2-1.9-1.3c-6.9-1.2-12-4.8-15.2-11
	c-0.2-0.4-0.6-0.8-1-1.3c-0.4,1.4-0.8,2.5-1.1,3.7c-0.1,0.4,0.3,0.9,0.6,1.2c1.8,1.7,3.5,3.7,6,4.5c0.5,0.2,1.1,0.5,1.3,0.9
	c1.7,3,5.4,3.4,7.5,5.8c0.5,0.6,1.2,1.4,1.1,1.9c-0.3,1-1.4,1.7-2.4,1.1c-2.6-1.5-5.3-3-7.6-4.9c-1-0.9-1.9-1.9-3.2-2.5
	c-0.9-0.5-1.6-1.7-2.2-2.6c-0.5-0.7-0.6-1.7-1.2-2.2c-2.9-2.8-2.6-6.3-2.4-9.9c0-0.5,0.7-1,1-1.4c0.5-0.6,1-1.2,1.5-1.8
	c-0.1-0.1-0.2-0.3-0.3-0.4c-1.7,0.5-3.4,1.1-4.8,1.5c0.7,3,1.7,5.8,2,8.7c0.5,5.3-1.4,9.8-5.2,13.5c-1.8,1.8-3.6,3.5-5.6,5.1
	c-5.3,4.4-11.3,5.8-18.1,4.5c-4.6-0.9-8.9-2.1-12.4-5.4c-1.1-1-2-2.2-3.2-3.5c-0.1,0.9-0.1,1.6-0.2,2.4c-0.4,3.2-0.8,6.4-1.3,9.6
	c-0.5,3.4-1.3,6.7-1.7,10.1c-0.8,5.8-6,10.5-12,10.6c-6,0.1-11.4-4.4-12.3-10.2c-0.4-2.4-1.1-4.7-1.6-7c-0.5-2.5-0.9-5.1-1.2-7.6
	c-0.7-5.1-0.7-10.1,2-14.9c1-1.7,1.2-4,1.3-6.1c0.2-4.4,0.1-8.8,0.1-13.2c0-0.6-0.1-1.2-0.2-1.6c-2.6,0.8-5.1,1.8-7.7,2.1
	c-2.9,0.3-5.8,0.1-8.8-0.1c-0.5,0-0.9-0.8-1.4-1.3c0.6-0.2,1.3-0.5,1.9-0.4c5.1,0.8,10.1,0.2,14.7-2.3c0.4-0.2,0.8-1.1,0.7-1.6
	c-1.4-5.1-1-10.1-0.4-15.2c0-0.3,0-0.6,0-1.3c-2.3,0.9-4.4,1.7-6.4,2.7c-3.9,2-7.6,4.2-11.5,6.2c-3.1,1.6-6.3,3-9.8,3.3
	c-1.3,0.1-2.6,0.6-3.9,0.8c-3.5,0.6-6.9-1.7-7.8-5c-0.9-3.4,0.8-7,4-8.4c4.1-1.8,8.2-3.7,12.3-5.5c3.6-1.5,7.3-2.9,11-4.4
	c0.4-0.2,0.8-0.4,1.2-0.9c-3,0.3-4.8-1.6-6.8-3.2c-0.6-0.5-1.4-0.9-2.1-0.8c-2.2,0.2-3.2-1.5-4.4-2.7c-0.3-0.3-0.1-1-0.1-1.6
	c0.5,0.1,1.1,0,1.4,0.3c1.2,1.3,2.5,2,4.2,2.4c2.4,0.5,4.8,1.3,7.1,2.1c0.5,0.2,1.1,0.8,1.3,1.3c0.6,1.1,1.3,1.6,2.6,1.1
	c3.6-1.4,7.3-2.7,10.9-4.1c2.1-0.8,4.1-1,6.1,0.1c1,0.5,1.7,0.6,2.8,0.2c6.9-2.6,14,2.1,14.5,9.4c0.1,1.7,0,3.4,0.2,5
	c0.1,0.6,0.6,1.1,0.9,1.6c0.8,1.2,1.7,2.4,2.5,3.7c0.2,0.3,0.2,0.7,0.4,1c1.4,1.9,2.9,3.8,4.3,5.8c1.6,2.3,3,4.7,4.6,7.4
	c1-0.2,2.5-0.6,3.9-0.7c2.6-0.2,5.2-0.5,7.7-0.3c3.8,0.4,7.8,0.1,11.3,2c0.2,0.1,0.8,0,1-0.2c0.8-0.9,1.5-1.9,2.5-3.3
	c-4.1,0-7.7,0.1-11.2,0c-2.4-0.1-4.8-0.5-7.1-1.1c-2.4-0.6-3.8-2.4-4.7-4.8c-0.2,0-0.5,0-0.8-0.1c-0.8-0.5-1.6-1.1-2.4-1.6
	c0.8-0.6,1.6-1.1,2.3-1.7c0.4-0.3,1-0.6,1.2-1c1.3-2.8,3.5-4.1,6.6-4.3c5.7-0.3,11.4-0.7,17.2-1.1c0.6-2.3-0.2-4.8-1.1-7.2
	c-1.3-3.5-2.8-6.9-4.3-10.3c-0.2-0.4-0.5-1-0.8-1c-2-0.3-4-0.5-6-0.7c-1-0.1-2.1-0.1-3-0.5c-2.7-1.1-5.5-1-8.4-0.7
	c-4.6,0.4-9.2,0.9-13.8,1c-3.5,0-6.5-1.9-8.9-4.2c-2.2-2.1-2-4.9-1.3-7.6c0.2-0.6,0.1-1.6-0.3-2.1c-4-5.7-5.1-11.9-3-18.5
	c0.1-0.5,0.2-1,0.4-1.7c-1.4,0.7-3,1-3.4,1.9c-0.6,1.3-0.6,3-0.4,4.5c0.2,1.8,0.9,3.5,1.1,5.3c0.2,1.4-0.1,2.8,0.1,4.2
	c0.3,2.1,0.9,4.2,1.2,6.3c0.1,0.5-0.4,1.5-0.7,1.6c-0.8,0.1-1.7-0.1-2.3-0.6c-0.5-0.4-0.7-1.4-0.8-2.1c-0.4-1.6-0.7-3.3-0.9-4.9
	c-0.2-1.1-0.1-2.3-0.2-3.5c-0.1-0.7-0.1-1.4-0.4-2c-0.8-1.7-0.9-3.2,0.4-4.7c0.2-0.2,0.3-0.4,0.3-0.6c0.3-2.2,0.7-4.3,0.9-6.1
	c-7.7,8.3-17.8,8-27.4,4.3c-10.8-4.2-15.4-13.5-14.9-25.6c-1,1.1-1.7,2-2.5,2.7c-1.4,1.2-2.8,2.3-4.2,3.4c-1.6,1.2-3.1,2.5-4.8,3.5
	c-4.3,2.6-8,6.4-13.6,6.4c-9.2-0.1-15.1-9.7-10.8-17.9c1.1-2.2,2.3-4.3,3.8-6.3c3-4,6-7.9,9.3-11.7c1.3-1.5,3-3,4.7-3.5
	c6.1-1.7,10.2-6.2,14.4-10.4c1.6-1.6,3.3-3.1,5.2-4.8c-2.1-0.9-3.9-1.4-5.2-2.4c-2.6-2-5-4.2-7.5-6.4c-0.2-0.2-0.4-0.5-0.5-0.7
	c-0.3-0.8-1.5-1.8-0.2-2.5c1.2-0.7,1.3,0.8,1.8,1.4c3.2,3.9,6.9,7.1,11.9,8.4c0.4,0.1,1,0,1.2-0.3c2.7-5,7-8.5,11.3-12
	c0,0,0-0.1,0.2-0.4c-3.7-1.4-7.2-3.2-11.2-4c-4-0.8-8-2.2-11.8-3.9c-3-1.3-5.8-3.2-8.5-5.1c-3-2.1-3.7-6.1-1.9-9.2
	c1.8-3.1,5.5-4.2,8.8-2.9c5.1,2,10.3,3.8,15.4,5.8c2.7,1.1,5.3,2.4,8,3.6c0.4,0.2,0.8,0.2,1.6,0.5c-0.6-0.8-0.9-1.1-1.2-1.6
	c-0.5-0.9-1.2-1.9-1.3-2.9c-0.2-2.3-0.6-4.3-2.1-6.3c-0.7-1-0.2-2.9-0.2-4.4c0-0.2,0.7-0.6,0.9-0.5c0.3,0.2,0.8,0.7,0.7,1
	c-0.8,3,2.1,4.8,2.4,7.5c0.1,1.2,1.5,2.2,2,3.3c0.4,0.7,0.6,1.7,0.4,2.4c-0.2,1.2-0.1,2.1,1.1,2.6c3.6,1.6,7.1,3.3,10.6,4.8
	c2.1,0.9,3.5,2.4,4.3,4.6c0.3,0.7,0.8,1.5,1.4,1.7c6.9,3.2,8.8,11.2,3.9,17c-1,1.2-2.3,2.3-3.3,3.6c-0.4,0.5-0.6,1.3-0.7,2
	c-0.1,0.8,0,1.6-0.1,2.3c-0.4,2-1,4-1.4,6c-0.9,4.1-1.8,8.1-2.7,12.5c0.8,0.5,2.1,1.3,3.1,2.2c2,1.8,4.2,3.4,5.9,5.5
	c2.3,2.9,5.2,5.4,6.4,9.1c0.3,1,2.6,0.8,4.7-0.4c-2.6-2.5-5.2-4.9-7.6-7.4c-1.6-1.8-3.1-3.8-4.3-5.9c-0.6-0.9-0.9-2.2-0.7-3.3
	c0.3-2,0.8-3.8-0.2-5.8c-0.5-0.9,0.3-1.7,1.2-1.2c1.8,0.9,3.5,0.6,5.4,0.2c1.9-0.3,3.7,0.4,5.2,1.7c2.2,1.9,4.5,3.7,6.7,5.7
	c2.1,2,4.1,4.2,6.2,6.3c2.6-1.6,3.8-4,4.9-6.4c1.4-3.2,2.7-6.5,4-9.8c0.2-0.6,0.2-1.7-0.2-2.2c-1.1-1.5-2.4-2.8-3.6-4.3
	c-0.6-0.7-1.1-1.6-1.5-2.5c-1.1-2.5-3.1-4.3-5.1-6c-3.6-3-7.3-5.9-10.6-9.2c-2.5-2.5-3.3-6-3.3-9.5c0-2.9,2.1-4.7,4.5-6.1
	c0.6-0.3,1.1-1,1.2-1.6c1.3-6.9,4.9-12.1,11.1-15.4c0.4-0.2,0.8-0.6,1.3-1c-1.4-0.4-2.4-0.8-3.5-1c-0.4-0.1-1,0.2-1.4,0.6
	c-1.8,1.8-3.7,3.5-4.5,6c-0.2,0.5-0.6,1.2-1.1,1.4c-1.8,0.7-2.2,2.4-3.1,3.8c-0.9,1.5-2,2.9-3.2,4.3c-0.3,0.3-1.1,0.6-1.3,0.4
	c-0.5-0.5-1.2-1.2-1.2-1.8c0-0.7,0.5-1.6,0.9-2.3c0.8-1.4,1.7-2.7,2.7-4c0.8-1,1.7-1.9,2.5-2.9c0.4-0.5,0.8-1,1-1.6
	c0.6-1.8,1.6-2.9,3.5-3.1c0.4,0,0.9-0.2,1.1-0.5c2.5-3.3,6.1-3.3,9.8-3.1c0.7,0,1.4,0.7,2.1,1.2c0.6,0.4,1.2,1,1.8,1.5
	c0.1-0.1,0.3-0.2,0.4-0.3c-0.6-1.7-1.1-3.4-1.7-5.3c-3.4,1.9-6.8,2.9-10.5,2.6c-3.2-0.2-6.3-1-8.8-3c-5.4-4.3-10.6-9-12.1-16
	c-1.9-9.6-0.1-18.4,8.1-25c0.1-0.1,0.2-0.2,0.5-0.5c-0.6,0-1-0.1-1.5-0.1c-2.9-0.3-5.7-0.6-8.6-1c-1.6-0.2-3.2-0.2-4.8-0.6
	c-3.3-0.7-6.7-1.3-9.9-2.4c-5.2-1.8-8.4-7.4-7.7-12.6c0.7-5.9,5.1-10.2,10.9-10.9c1.8-0.2,3.5-1,5.2-1.3c3-0.6,6-1.1,9-1.4
	c4.9-0.5,9.6-0.7,14.2,2c1.7,1,4.1,1.3,6.2,1.4c4.4,0.2,8.8,0.1,13.2,0.1c0.6,0,1.3-0.1,1.8-0.1c-0.8-2.6-1.8-5.1-2.1-7.7
	c-0.3-2.9-0.1-5.9,0.1-8.8c0-0.5,0.8-0.9,1.3-1.4c0.2,0.6,0.5,1.3,0.4,1.9c-0.8,5.1-0.2,10.1,2.3,14.7c0.2,0.4,1.1,0.8,1.6,0.7
	c5.1-1.3,10.1-1,15.2-0.4c0.3,0,0.6,0,1.3,0c-0.9-2.3-1.7-4.4-2.7-6.4c-2-3.9-4.2-7.6-6.2-11.5c-1.6-3.1-3-6.3-3.3-9.8
	c-0.1-1.3-0.6-2.6-0.8-3.9c-0.6-3.5,1.6-6.9,5-7.8c3.5-1,7,0.9,8.5,4.2c2.2,5,4.6,10,6.8,15c1.1,2.6,2,5.4,3,8.1
	c0.2,0.4,0.4,0.8,0.9,1.2c-0.2-3,1.6-4.8,3.2-6.8c0.5-0.6,0.9-1.4,0.8-2.1c-0.1-2.2,1.4-3.2,2.7-4.4c0.3-0.3,1-0.1,1.6-0.1
	c-0.1,0.5,0,1.2-0.3,1.4c-1.4,1.2-2,2.6-2.4,4.4c-0.5,2.4-1.3,4.7-2.1,6.9c-0.2,0.5-0.7,1.1-1.3,1.4c-1.2,0.6-1.6,1.3-1.2,2.6
	c1.4,3.6,2.7,7.3,4.1,10.9c0.9,2.2,0.8,4.3-0.2,6.5c-0.3,0.6-0.4,1.6-0.1,2.3c2.6,7.2-1.9,14.2-9.6,14.8c-1.6,0.1-3.2,0.1-4.8,0.2
	c-0.5,0-1,0.4-1.5,0.7c-1.4,0.9-2.7,1.8-4.1,2.7c-0.2,0.2-0.6,0.2-0.8,0.4c-2.5,1.9-5,3.9-7.6,5.7c-1.6,1.1-3.5,1.8-5.4,2.8
	c0.1,0.7,0.1,1.6,0.4,2.5c1.8,5.6,0.4,11.1-0.1,16.6c-0.1,0.9-0.4,1.8-0.7,2.6c-0.9,2.6-0.3,3.7,2.9,4.4c0-3.5-0.1-7,0-10.4
	c0.1-2.4,0.5-4.9,1.1-7.3c0.6-2.5,2.5-3.9,4.9-4.7c0-0.3,0-0.7,0.1-0.9c0.5-0.8,1.1-1.5,1.6-2.2c0.6,0.7,1.1,1.4,1.7,2.1
	c0.4,0.5,0.7,1.1,1.2,1.4c2.7,1.4,4,3.5,4.2,6.5c0.3,5.7,0.7,11.4,1.1,17.2c2.4,0.6,4.9-0.2,7.3-1.1c3.4-1.3,6.8-2.8,10.1-4.2
	c0.4-0.2,1-0.5,1-0.8c0.3-2,0.5-4,0.8-6c0.2-1.4,0.7-2.8,0.8-4.2c0.2-2.3,0.3-4.5,0.4-6.8c0-1.4,0-2.8-0.1-4.2
	c-0.3-3.3-0.9-6.6-0.9-9.9c0-3.5,1.9-6.5,4.2-8.9c2.1-2.2,4.9-2,7.6-1.3c0.6,0.2,1.5,0.1,2.1-0.3c5.7-4,11.9-5.1,18.5-3.1
	c0.4,0.1,0.8,0.2,1.2,0.3c0.1,0,0.2-0.1,0.3-0.2c-0.6-1.1-0.9-2.6-1.7-3c-1.2-0.6-2.9-0.6-4.3-0.5c-1.7,0.2-3.4,1.3-4.9,1.1
	c-3.1-0.6-5.7,0.9-8.6,1.2c-0.7,0.1-1.4,0.4-2.1,0.3c-0.7-0.1-1.9-0.4-1.9-0.7c-0.1-0.8,0.2-1.8,0.7-2.4c0.4-0.5,1.3-0.6,2-0.7
	c1.7-0.4,3.5-0.8,5.3-1c1-0.2,2-0.1,3-0.2c0.7-0.1,1.5-0.1,2.2-0.4c1.7-0.8,3.2-0.9,4.7,0.4c0.2,0.2,0.4,0.3,0.6,0.3
	c1.1,0,2.3-0.1,3.4,0.1c1,0.2,2,0.9,3,1.3c-8.7-8.2-8.4-18.4-4.6-28c4.2-10.7,13.5-15.3,25.7-14.7c-1.1-1-2-1.6-2.7-2.4
	c-1.3-1.4-2.4-3-3.6-4.5c-1.2-1.5-2.4-3-3.4-4.6c-2.6-4.2-6.3-8-6.4-13.4c-0.1-9.4,9.8-15.4,18-10.9c2.1,1.1,4.1,2.2,6,3.6
	c4.1,3.1,8.2,6.3,12.1,9.6c1.4,1.2,2.8,2.9,3.3,4.6c1.7,6,6.1,9.9,10.2,14.1c1.6,1.7,3.2,3.4,4.8,5.2
	C280.5,72.8,280.7,72.7,280.9,72.6z M150.6,308.9c-0.1,0.2-0.1,0.3-0.2,0.5c4.1,1.4,7.9,3.4,12.3,4.1c0.5-3.1,1.9-4.1,4.6-2.9
	c2.5,1.1,4.9,2.4,7.2,3.5c0-2.2,0-4.5,0-6.7c0-1.4-0.3-2.2-1.9-1.9c-1.7,0.3-3.4,0.3-5,0.6c-2.9,0.6-5.7,1.5-8.5,2
	C156.3,308.5,153.4,308.6,150.6,308.9z M305.1,325.8c0.2,2.4,0.3,4.6,0.7,6.7c0.6,3.4,1.6,6.8,2.2,10.2c0.4,2.3,0.4,4.7,0.6,7
	c0.2,0.1,0.4,0.1,0.6,0.2c1.4-4.1,2.9-8.2,4.3-12.3c-3.5-0.6-4.4-2-3.2-4.7c1.1-2.5,2.4-4.9,3.4-7.1
	C311,325.8,308.1,325.8,305.1,325.8z M337.3,187c-0.6,3.3-2,4.1-4.8,2.9c-2.4-1.1-4.8-2.3-6.9-3.4c0,2.8,0,5.6,0,8.6
	c2.4-0.2,4.6-0.3,6.6-0.7c3.5-0.6,6.9-1.6,10.4-2.2c2.3-0.4,4.6-0.4,6.9-0.6c0-0.2,0.1-0.3,0.1-0.5
	C345.6,189.6,341.7,187.8,337.3,187z M186.9,163c3,0.4,3.9,1.9,2.7,4.7c-1.1,2.4-2.3,4.8-3.4,7c2.8,0,5.6,0,8.7,0
	c-0.2-2.4-0.3-4.6-0.7-6.7c-0.6-3.5-1.6-6.9-2.2-10.3c-0.4-2.3-0.4-4.6-0.6-6.9C190.1,151.8,187.1,160,186.9,163z M258.2,151.9
	c2,1.9,4.1,3.9,6.5,6.2c2.1-3.1,4.1-5.9,6-8.8c1-1.5,1.9-3.1,3-4.5c1.7-2.2,3.5-4.2,5.2-6.4c-0.1-0.1-0.1-0.3-0.2-0.4
	c-4,1.8-8.1,3.3-11.8,5.8c1.8,2.4,1.7,3.9-0.6,4.9C263.8,150,261,150.8,258.2,151.9z M158.2,235.8c-3.4-2.3-6.2-4.3-9-6.2
	c-1.5-1-3.2-1.9-4.7-3c-2.2-1.7-4.3-3.5-6.4-5.3c-0.2,0.1-0.3,0.2-0.5,0.3c1.9,3.9,3.8,7.8,5.7,11.8c2.9-1.9,4.3-1.8,5.4,0.7
	c1.2,2.6,2,5.4,2.6,7.2C153.2,239.7,155.5,237.9,158.2,235.8z M233.2,356.9c-2.2-2.8-1.7-4.6,1.2-5.7c2.5-0.9,5-1.7,6.7-2.3
	c-1.7-2-3.5-4.3-5.6-6.9c-2.3,3.3-4.3,6.1-6.2,8.9c-1.1,1.6-2,3.3-3.1,4.8c-1.7,2.2-3.5,4.2-5.2,6.3c0.1,0.2,0.2,0.3,0.2,0.5
	C225.2,360.8,229.1,358.9,233.2,356.9z M342.2,264.3c0.1,0.3,0.2,0.6,0.2,0.9c2.9,2,5.8,3.9,8.8,5.9c1.4,1,3,1.8,4.3,2.9
	c2.2,1.7,4.2,3.5,6.3,5.2c0.1-0.1,0.3-0.1,0.4-0.2c-1.9-3.9-3.3-8.1-5.9-11.7c-2.6,1.9-4.2,1.5-5.3-1.2c-1-2.5-1.8-5.1-2.5-7
	C346.6,260.7,344.4,262.5,342.2,264.3z M250.6,255.8c2,0.2,5-3.3,4.8-6.3c-0.1-1.3-1-2.8-2.1-3.6c-1-0.8-2.7-1.3-4-1.2
	c-1.3,0.1-2.8,1-3.6,2c-0.8,1.1-1.1,2.7-1.4,4.1C244.1,252.9,247.5,255.6,250.6,255.8z M382.7,228.2c1-2.2,1.9-4.2,2.9-6.5
	c-0.4,0.3-0.6,0.5-0.8,0.6c-1.5,1.5-2.8,3.4-5.4,2.6c-0.4-0.1-1,0.4-1.8,0.8C379.4,226.6,381,227.3,382.7,228.2z M227.9,117.6
	c-2.2-1-4.2-1.9-6.2-2.8c2.7,1.8,3.2,4.6,3.3,7.6c0.2,0,0.3-0.1,0.5-0.1C226.3,120.8,227.1,119.2,227.9,117.6z M114.4,278.8
	c0.5-0.4,0.7-0.5,0.9-0.7c1.5-1.4,2.7-3.3,5.3-2.5c0.4,0.1,1-0.4,1.8-0.8c-2-0.9-3.5-1.7-5.1-2.5
	C116.4,274.5,115.5,276.5,114.4,278.8z M272.1,382.9c2.2,1,4.2,1.9,6.2,2.8c-2.7-1.8-3.3-4.6-3.3-7.7c-0.2,0-0.4,0.1-0.5,0.1
	C273.7,379.7,272.9,381.3,272.1,382.9z M253,322.3c2.5-0.2,4.2-1.2,4.7-3.7c-0.4-0.2-0.8-0.5-1.3-0.8
	C255.3,319.3,254.3,320.7,253,322.3z M243.5,182.8c1.1-1.5,2.2-3,3.4-4.5c-2.5,0.3-4.2,1.1-4.7,3.7
	C242.6,182.1,243,182.4,243.5,182.8z M182.5,256.7c-1.5-1.2-3-2.3-4.6-3.4c0.3,2.5,1.2,4.2,3.7,4.7
	C181.9,257.7,182.1,257.3,182.5,256.7z M322,247.2c-0.2-2.5-1.2-4.2-3.7-4.7c-0.2,0.4-0.5,0.8-0.8,1.3
	C319.1,245,320.5,246.1,322,247.2z M197.7,207.1c-0.3-1.9-0.5-3.7-0.8-5.6c-1.6,2-2.1,3.8-0.7,5.9
	C196.7,207.3,197.1,207.2,197.7,207.1z M303.1,299.1c1.5-2,2.2-3.8,0.7-6c-0.4,0.1-0.9,0.2-1.4,0.3
	C302.6,295.3,302.8,297.1,303.1,299.1z M293.2,197.9c1.9-0.3,3.6-0.5,5.6-0.8c-2-1.5-3.8-2.2-6-0.6
	C293,196.9,293.1,197.4,293.2,197.9z M201.2,303.3c2,1.6,3.8,2.2,6,0.7c-0.1-0.4-0.3-0.9-0.4-1.4
	C204.9,302.8,203.2,303.1,201.2,303.3z M171.9,323.7c1.1-2.6,1.1-2.6-2.2-4.9C170.5,320.6,171.2,322.2,171.9,323.7z M328.1,176.8
	c-1,2.7-1,2.7,2.2,4.9C329.5,179.9,328.8,178.3,328.1,176.8z M318.5,330.7c1.9-0.9,3.5-1.6,5.4-2.5
	C320.9,327.3,320.9,327.3,318.5,330.7z M355.5,258.1c0.5-1.5,1.1-3,1.7-4.7C354,254.1,354.8,256.1,355.5,258.1z M176.6,172.1
	c2.6,1.1,2.6,1.1,4.9-2.2C179.6,170.7,178.1,171.4,176.6,172.1z M247.1,357.6c-1.4-2.8-1.4-2.8-5.2-2
	C243.7,356.3,245.2,356.9,247.1,357.6z M252.9,142.9c1.5,2.9,1.5,2.9,5.1,1.9C256.3,144.2,254.8,143.6,252.9,142.9z M144.7,242.1
	c-0.7,1.9-1.3,3.4-1.9,5.1C145.5,246,145.5,246,144.7,242.1z"/>
<path class="st0" d="M409.9,199.7c0.1-0.8,0.2-1.7,0.5-2.5c0.1-0.3,0.8-0.7,1.1-0.6c0.3,0.1,0.6,0.7,0.7,1.1c0,0.7-0.2,1.4-0.2,2.1
	c0,1.6,1.2,2.9,2.7,2.7c0.9-0.1,2.1-0.2,2.7-0.8c1.5-1.7,3.9-2.7,4.4-5.3c0.1-0.6,0.5-1.2,0.8-1.8c1.4-2.4,2.4-5,2.8-7.8
	c0.1-0.6,0.7-1.1,1.1-1.7c0.2,0.6,0.6,1.3,0.7,1.9c0.2,1.3,0.2,2.6,0.3,3.8c0,0.4,0.1,0.8-0.1,1.1c-1.3,3.1-2,6.5-4.5,9
	c-1.9,1.9-3.5,3.9-6.2,4.7c-2.2,0.7-3.9,0.2-4.7-1.9c-0.1-0.3-0.4-0.6-0.6-0.9c-0.6-1-1.1-2.1-1.7-3.1
	C409.7,199.9,409.8,199.8,409.9,199.7z"/>
<path class="st0" d="M300.5,410.1c0.9,0.1,1.7,0.1,2.2,0.3c0.4,0.2,0.6,0.8,0.9,1.3c-0.4,0.2-0.9,0.5-1.3,0.5
	c-0.6,0.1-1.3-0.1-2-0.1c-1.5,0-2.7,1-2.6,2.5c0,1,0.2,2.3,0.9,2.9c1.6,1.6,2.9,3.7,5.5,4.4c2.2,0.6,4.1,2,6.3,2.9
	c1,0.4,2.2,0.3,3.3,0.7c0.5,0.1,0.8,0.7,1.3,1.1c-0.5,0.2-0.9,0.6-1.4,0.7c-1.5,0.2-3,0.2-4.5,0.3c-0.3,0-0.6,0-0.9-0.1
	c-3-1.4-6.5-2-9-4.5c-1.8-1.8-3.8-3.4-4.6-6.1c-0.7-2.3-0.3-3.9,1.9-4.9c0.7-0.3,1.2-1.2,2-1.5C299.1,410.3,299.9,410.2,300.5,410.1
	z"/>
<path class="st0" d="M90.1,300.9c-0.1,0.8-0.1,1.6-0.4,2.3c-0.1,0.3-0.7,0.5-1.1,0.7c-0.3-0.4-0.7-0.8-0.7-1.2
	c-0.1-0.6,0.2-1.2,0.2-1.8c0-2.4-1.4-3.3-3.7-2.6c-3.2,0.9-5,3.1-6.2,6c-0.9,2.1-2.1,4.1-2.9,6.3c-0.4,1-0.3,2.1-0.6,3.2
	c-0.1,0.5-0.6,0.9-1,1.4c-0.3-0.5-0.7-1-0.8-1.5c-0.2-1.5-0.2-3-0.3-4.5c0-0.3,0-0.6,0.1-0.9c1.4-3,2-6.5,4.6-9
	c1.9-1.9,3.7-3.9,6.4-4.8c1.9-0.6,3.7,0,4.5,1.9c0.1,0.3,0.4,0.6,0.6,0.9c0.6,1.1,1.2,2.2,1.8,3.2C90.4,300.7,90.2,300.8,90.1,300.9
	z"/>
<path class="st0" d="M199.5,90.3c-0.7-0.1-1.5,0-2.1-0.3c-0.4-0.2-0.7-0.8-1.1-1.2c0.5-0.2,0.9-0.6,1.4-0.6c0.6-0.1,1.2,0.1,1.8,0.1
	c2.1,0,2.9-1.6,2.5-3.6c-0.5-2.6-2.5-4.1-4.3-5.5c-1.8-1.4-4.2-2.1-6.4-2.9c-1.8-0.7-3.7-0.9-5.6-1.5c-0.3-0.1-0.6-0.7-0.6-1.1
	c0-0.2,0.6-0.7,0.8-0.7c3.5,0.4,7.2-0.8,10.6,1.7c1.9,1.4,4.2,2.4,6,4.1c1.5,1.5,2.5,3.2,3.2,5.1c0.7,1.7-0.2,3.5-2,4.3
	c-0.3,0.1-0.6,0.4-0.9,0.6c-1,0.6-2.1,1.2-3.1,1.7C199.7,90.6,199.6,90.4,199.5,90.3z"/>
<path class="st0" d="M405.3,338.1c-2.1-0.5-4.2-0.9-6.3-1.6c-1.9-0.6-2.6-2.7-1.8-4.5c0.2-0.4,0.3-0.8,0.2-1.2
	c-0.2-2.4,1.5-3.4,3.1-4.4c0.3-0.2,1,0,1.6,0.1c-0.2,0.5-0.2,1.2-0.6,1.4c-3,2.2-2.5,3.4-1.4,4.8c0.5,0.6,1.4,1.3,2.1,1.3
	c2.2,0.1,4.5,0.1,6.7-0.1c0.8-0.1,1.5-0.7,2.3-0.9c2.8-0.7,5.5-1.9,7.8-3.7c0.4-0.3,1.2-0.2,1.8-0.2c-0.2,0.5-0.3,1.2-0.6,1.6
	c-0.9,1.1-1.9,2.2-2.9,3.3c-0.4,0.5-1,1-1.6,1.2c-3.4,0.9-6.4,3.4-10.3,2.5C405.3,337.7,405.3,337.9,405.3,338.1z"/>
<path class="st0" d="M162.2,405.5c0.5-2,0.9-4.1,1.5-6.1c0.6-2,2.6-2.8,4.6-1.9c0.4,0.2,0.8,0.3,1.2,0.2c2.4-0.2,3.3,1.6,4.4,3.1
	c0.2,0.3-0.1,1-0.1,1.6c-0.5-0.2-1.1-0.3-1.4-0.6c-2.1-2.5-2.9-2.9-4.7-1.5c-0.7,0.6-1.6,1.5-1.6,2.3c-0.1,2.3,0.2,4.5,0.5,6.8
	c0.1,0.7,0.6,1.3,0.7,2c0.7,2.8,1.8,5.5,3.7,7.8c0.3,0.4,0.1,1.2,0.2,1.8c-0.5-0.2-1.2-0.3-1.6-0.6c-1.1-0.9-2.2-1.9-3.3-2.9
	c-0.5-0.4-1-1-1.1-1.6c-0.9-3.4-3.4-6.4-2.5-10.3C162.5,405.5,162.4,405.5,162.2,405.5z"/>
<path class="st0" d="M94.7,162.4c2.1,0.5,4.2,0.9,6.3,1.6c1.9,0.6,2.7,2.7,1.9,4.5c-0.2,0.4-0.3,0.8-0.3,1.2c0.3,2.4-1.5,3.4-3,4.5
	c-0.4,0.3-1.1,0-1.6,0c0.2-0.5,0.3-1.2,0.7-1.6c2.3-1.9,2.7-3,1.4-4.7c-0.6-0.7-1.5-1.4-2.3-1.5c-2.3-0.1-4.5,0.1-6.8,0.4
	c-0.7,0.1-1.4,0.6-2.2,0.8c-2.7,0.8-5.3,1.8-7.6,3.6c-0.4,0.3-1.2,0.2-1.8,0.3c0.2-0.6,0.3-1.3,0.7-1.7c0.9-1.1,1.8-2.1,2.8-3.1
	c0.4-0.5,1-1,1.6-1.2c3.4-0.9,6.4-3.4,10.2-2.5C94.6,162.8,94.7,162.6,94.7,162.4z"/>
<path class="st0" d="M337.8,95.2c-0.5,1.9-0.9,4-1.5,6.1c-0.6,1.9-2.7,2.6-4.5,1.8c-0.3-0.1-0.7-0.3-1-0.3c-2.4,0.3-3.4-1.4-4.6-2.9
	c-0.3-0.4,0-1.1,0-1.7c0.5,0.2,1.2,0.3,1.5,0.7c1.8,2.2,3.1,2.7,4.7,1.3c0.6-0.5,1.3-1.4,1.3-2.1c0.1-2.2,0.1-4.5-0.1-6.7
	c-0.1-0.8-0.7-1.6-1-2.5c-0.8-2.7-1.8-5.3-3.7-7.6c-0.3-0.4-0.2-1.2-0.3-1.8c0.5,0.2,1.2,0.3,1.6,0.6c1.1,0.9,2.2,1.9,3.3,2.9
	c0.5,0.5,0.9,1,1.2,1.6c0.7,1.6,1.4,3.3,1.9,5C337.2,91.3,337.4,93.1,337.8,95.2z"/>
<path class="st0" d="M312.2,102.6c0.2,4.3,0.4,8.5,0.5,12.8c0,0.5-0.6,1-0.8,1.5c-0.3-0.5-0.9-0.9-0.9-1.5c-0.2-1.8-0.3-3.7-0.4-5.6
	c-0.1-3.4-0.9-6.6-1.9-9.8c-0.1-0.3,0.8-1,1.4-1.3c1.1-0.5,2.1-0.3,2.4,1c0.2,0.9,0.2,1.9,0.3,2.9
	C312.6,102.6,312.4,102.6,312.2,102.6z"/>
<path class="st0" d="M102.3,188c4.3-0.2,8.6-0.4,12.9-0.5c0.4,0,0.9,0.5,1.4,0.8c-0.4,0.3-0.8,0.9-1.2,1c-0.9,0.2-1.8,0.3-2.7,0.3
	c-4.4,0.1-8.7,0.5-12.9,2.1c-0.2,0.1-1-0.7-1.3-1.2c-0.6-1.1-0.5-2.2,0.9-2.6c0.9-0.3,1.9-0.2,2.8-0.4
	C102.3,187.7,102.3,187.9,102.3,188z"/>
<path class="st0" d="M397.7,312.5c-4.3,0.2-8.6,0.4-12.9,0.5c-0.4,0-0.9-0.5-1.3-0.8c0.4-0.3,0.8-0.8,1.2-1c0.8-0.2,1.7-0.3,2.5-0.3
	c4.4-0.1,8.8-0.5,13-2.1c0.2-0.1,1,0.7,1.3,1.2c0.6,1.1,0.5,2.2-0.9,2.6c-0.9,0.3-1.9,0.2-2.9,0.3
	C397.7,312.8,397.7,312.7,397.7,312.5z"/>
<path class="st0" d="M187.8,397.9c-0.2-4.3-0.4-8.5-0.5-12.8c0-0.5,0.5-0.9,0.7-1.4c0.4,0.4,1,0.8,1,1.3c0.3,2.4,0.5,4.8,0.6,7.2
	c0.1,2.9,1.1,5.5,1.8,8.2c0.1,0.3-0.6,1-1.1,1.3c-1.2,0.7-2.3,0.6-2.7-0.9c-0.3-0.9-0.2-1.9-0.3-2.9
	C187.4,397.9,187.6,397.9,187.8,397.9z"/>
<path class="st0" d="M199.8,111.4c-0.3,0.4-0.5,0.9-0.7,0.9c-0.5,0-1.1-0.1-1.4-0.4c-2.3-1.9-4.5-4-6.8-5.9c-1.5-1.2-3.2-2.3-4.9-3
	c-0.9-0.4-1.6-0.6-1.1-1.7c0.5-1.1,1.3-2.4,2.7-1.6c1.3,0.8,2.3,2.2,3.3,3.4c0.4,0.4,0.6,0.9,1,1.2c2.2,2,4.5,4,6.8,6
	C199.1,110.5,199.4,110.9,199.8,111.4z"/>
<path class="st0" d="M301.3,388c0.4,0.3,0.9,0.6,1.2,0.9c2.2,1.9,4.4,4,6.7,5.8c1.5,1.2,3.1,2.2,4.8,3c1,0.4,1.7,0.6,1.1,1.8
	c-0.6,1.1-1.4,2.3-2.7,1.4c-1.3-0.9-2.2-2.3-3.3-3.4c-0.3-0.3-0.6-0.8-0.9-1.1c-2.4-2.1-4.8-4.2-7.1-6.4c-0.3-0.3-0.5-0.9-0.5-1.4
	C300.5,388.4,301,388.2,301.3,388z"/>
<path class="st0" d="M398.6,184.7c0.8,0.6,1.7,1.1,2,1.8c0.2,0.5-0.1,1.6-0.5,2c-2.4,2.6-5,5-7.5,7.5c-1,1-1.9,2.2-2.9,3.2
	c-0.3,0.3-1,0.3-1.5,0.4c0-0.5-0.1-1.2,0.2-1.6c0.9-1.2,1.9-2.3,2.9-3.4c2.6-2.7,4.8-5.7,6.3-9.1
	C397.7,185.2,398.1,185.1,398.6,184.7z"/>
<path class="st0" d="M102,316.2c-1.3-1-2.2-1.4-2.6-2.1c-0.3-0.5,0-1.6,0.4-2.1c2.4-2.6,5-5,7.5-7.5c1-1,1.9-2.2,2.9-3.2
	c0.4-0.3,1.1-0.3,1.6-0.4c-0.1,0.5,0,1.2-0.3,1.6c-1,1.3-2.2,2.6-3.3,3.8c-2.4,2.6-4.3,5.4-5.8,8.6
	C102.3,315.3,102.2,315.7,102,316.2z"/>
</svg>
